<svg width="25" height="24" viewBox="0 0 25 24" fill="none" xmlns="http://www.w3.org/2000/svg">
<rect x="0.917969" width="23.9799" height="24" rx="7" fill="#0F6AEF"/>
<path fill-rule="evenodd" clip-rule="evenodd" d="M11.1948 24V15.4285H8.62548C8.51414 15.4285 8.40281 15.3857 8.32145 15.3042C8.24009 15.2228 8.19727 15.1157 8.19727 15V12.4285C8.19727 12.3128 8.24437 12.2057 8.32145 12.1242C8.40281 12.0428 8.50986 12 8.62548 12H11.1948V8.27996C11.1948 7.33282 11.5716 6.42853 12.2396 5.75568C12.9076 5.0871 13.8154 4.70996 14.7618 4.70996H17.6222C17.7336 4.70996 17.8449 4.7571 17.9263 4.83425C18.0076 4.91568 18.0504 5.02282 18.0504 5.13853V7.28139C18.0504 7.3971 18.0033 7.50425 17.9263 7.58568C17.8449 7.6671 17.7378 7.70996 17.6222 7.70996H16.3718C15.4041 7.70996 14.6247 8.49425 14.6247 9.45853V11.9957H17.5666C17.6907 11.9957 17.8064 12.0471 17.8877 12.1414C17.9691 12.2357 18.0076 12.3557 17.9905 12.48C17.9048 13.17 17.7464 14.4257 17.6693 15.0514C17.6436 15.2657 17.4595 15.4285 17.2454 15.4285H14.6247V24H11.199H11.1948Z" fill="white"/>
</svg>
