<svg width="30" height="30" viewBox="0 0 30 30" fill="none" xmlns="http://www.w3.org/2000/svg">
<rect width="30" height="30" rx="5" fill="#0F6AEF"/>
<path fill-rule="evenodd" clip-rule="evenodd" d="M12.8594 29.9997V19.2854H9.64509C9.5058 19.2854 9.36652 19.2319 9.26473 19.1301C9.16295 19.0283 9.10938 18.8944 9.10938 18.7497V15.5354C9.10938 15.3908 9.1683 15.2569 9.26473 15.1551C9.36652 15.0533 9.50045 14.9997 9.64509 14.9997H12.8594V10.3497C12.8594 9.16578 13.3308 8.03542 14.1665 7.19435C15.0022 6.35864 16.1379 5.88721 17.3219 5.88721H20.9004C21.0397 5.88721 21.179 5.94614 21.2808 6.04256C21.3826 6.14435 21.4362 6.27828 21.4362 6.42292V9.10149C21.4362 9.24614 21.3772 9.38006 21.2808 9.48185C21.179 9.58364 21.0451 9.63721 20.9004 9.63721H19.3362C18.1254 9.63721 17.1504 10.6176 17.1504 11.8229V14.9944H20.8308C20.9862 14.9944 21.1308 15.0586 21.2326 15.1765C21.3344 15.2944 21.3826 15.4444 21.3612 15.5997C21.254 16.4622 21.0558 18.0319 20.9594 18.814C20.9272 19.0819 20.6969 19.2854 20.429 19.2854H17.1504V29.9997H12.8647H12.8594Z" fill="white"/>
</svg>
