<svg width="25" height="24" viewBox="0 0 25 24" fill="none" xmlns="http://www.w3.org/2000/svg">
<g clip-path="url(#clip0_361_5241)">
<path d="M17.3631 0H8.37067C6.38321 0 4.47716 0.790176 3.07181 2.1967C1.66647 3.60322 0.876953 5.51088 0.876953 7.5L0.876953 16.5C0.876953 18.4891 1.66647 20.3968 3.07181 21.8033C4.47716 23.2098 6.38321 24 8.37067 24H17.3631C19.3506 24 21.2566 23.2098 22.662 21.8033C24.0673 20.3968 24.8569 18.4891 24.8569 16.5V7.5C24.8569 5.51088 24.0673 3.60322 22.662 2.1967C21.2566 0.790176 19.3506 0 17.3631 0ZM22.6087 16.5C22.6087 19.395 20.2557 21.75 17.3631 21.75H8.37067C5.4781 21.75 3.12507 19.395 3.12507 16.5V7.5C3.12507 4.605 5.4781 2.25 8.37067 2.25H17.3631C20.2557 2.25 22.6087 4.605 22.6087 7.5V16.5Z" fill="url(#paint0_linear_361_5241)"/>
<path d="M12.8661 6C11.2761 6 9.75126 6.63214 8.62698 7.75736C7.50271 8.88258 6.87109 10.4087 6.87109 12C6.87109 13.5913 7.50271 15.1174 8.62698 16.2426C9.75126 17.3679 11.2761 18 12.8661 18C14.456 18 15.9809 17.3679 17.1052 16.2426C18.2294 15.1174 18.861 13.5913 18.861 12C18.861 10.4087 18.2294 8.88258 17.1052 7.75736C15.9809 6.63214 14.456 6 12.8661 6ZM12.8661 15.75C11.8727 15.7488 10.9204 15.3533 10.218 14.6503C9.51554 13.9473 9.1204 12.9942 9.11921 12C9.11921 9.9315 10.8008 8.25 12.8661 8.25C14.9313 8.25 16.6129 9.9315 16.6129 12C16.6129 14.067 14.9313 15.75 12.8661 15.75Z" fill="url(#paint1_linear_361_5241)"/>
<path d="M19.3125 6.349C19.7537 6.349 20.1113 5.99105 20.1113 5.5495C20.1113 5.10795 19.7537 4.75 19.3125 4.75C18.8713 4.75 18.5137 5.10795 18.5137 5.5495C18.5137 5.99105 18.8713 6.349 19.3125 6.349Z" fill="url(#paint2_linear_361_5241)"/>
</g>
<defs>
<linearGradient id="paint0_linear_361_5241" x1="3.07111" y1="21.804" x2="22.6791" y2="2.21243" gradientUnits="userSpaceOnUse">
<stop stop-color="#FFC107"/>
<stop offset="0.507" stop-color="#F44336"/>
<stop offset="0.99" stop-color="#9C27B0"/>
</linearGradient>
<linearGradient id="paint1_linear_361_5241" x1="8.62762" y1="16.242" x2="17.1116" y2="7.76511" gradientUnits="userSpaceOnUse">
<stop stop-color="#FFC107"/>
<stop offset="0.507" stop-color="#F44336"/>
<stop offset="0.99" stop-color="#9C27B0"/>
</linearGradient>
<linearGradient id="paint2_linear_361_5241" x1="18.7475" y1="6.115" x2="19.8785" y2="4.98495" gradientUnits="userSpaceOnUse">
<stop stop-color="#FFC107"/>
<stop offset="0.507" stop-color="#F44336"/>
<stop offset="0.99" stop-color="#9C27B0"/>
</linearGradient>
<clipPath id="clip0_361_5241">
<rect width="23.9799" height="24" fill="white" transform="translate(0.876953)"/>
</clipPath>
</defs>
</svg>
