<svg width="30" height="30" viewBox="0 0 30 30" fill="none" xmlns="http://www.w3.org/2000/svg">
<g clip-path="url(#clip0_1404_10048)">
<path d="M21.7365 0H8.19588C3.66942 0 0 3.66942 0 8.19588V21.7365C0 26.2629 3.66942 29.9323 8.19588 29.9323H21.7365C26.2629 29.9323 29.9323 26.2629 29.9323 21.7365V8.19588C29.9323 3.66942 26.2629 0 21.7365 0Z" fill="url(#paint0_radial_1404_10048)"/>
<path d="M13.7348 15.5465C13.3358 15.5365 12.9366 15.5591 12.5412 15.6142C11.9675 15.7432 11.4645 16.0858 11.1342 16.5722C10.804 17.0587 10.6712 17.6526 10.7628 18.2334C10.8492 18.8202 11.1553 19.3522 11.6192 19.7219C12.083 20.0915 12.67 20.2711 13.2612 20.2243C13.8438 20.1841 14.3896 19.9252 14.7893 19.4995C15.189 19.0739 15.413 18.5128 15.4165 17.9289C15.4165 14.3722 15.4165 10.8204 15.4165 7.26365V6.88672H18.1855C18.3595 9.24013 19.7416 10.4386 22.0032 10.7527V13.4637C20.649 13.4469 19.3322 13.017 18.229 12.2314C18.229 12.3571 18.229 12.4489 18.229 12.5407C18.229 14.2852 18.229 16.0249 18.229 17.7646C18.2654 18.8434 17.9558 19.9056 17.3454 20.7959C16.7351 21.6862 15.856 22.358 14.8366 22.7131C13.9096 23.0925 12.8875 23.1745 11.9118 22.9477C10.9361 22.7209 10.055 22.1964 9.39042 21.447C8.67783 20.7576 8.19453 19.8657 8.00607 18.8923C7.81762 17.9189 7.93313 16.9111 8.33694 16.0056C8.74645 14.9613 9.48984 14.0818 10.4513 13.504C11.4128 12.9263 12.5383 12.6827 13.6527 12.8113L13.7541 12.8355L13.7348 15.5465Z" fill="url(#paint1_linear_1404_10048)"/>
</g>
<defs>
<radialGradient id="paint0_radial_1404_10048" cx="0" cy="0" r="1" gradientUnits="userSpaceOnUse" gradientTransform="translate(16.8315 -13.4198) scale(26.4191)">
<stop stop-color="#1F1F1F"/>
<stop offset="0.44" stop-color="#232222"/>
<stop offset="0.82" stop-color="#2D2B2B"/>
<stop offset="1" stop-color="#353132"/>
</radialGradient>
<linearGradient id="paint1_linear_1404_10048" x1="14.9671" y1="23.0465" x2="14.9671" y2="6.88672" gradientUnits="userSpaceOnUse">
<stop stop-color="#D1D3D4"/>
<stop offset="0.15" stop-color="#DEE0E1"/>
<stop offset="0.41" stop-color="#F1F1F2"/>
<stop offset="0.69" stop-color="#FBFCFC"/>
<stop offset="1" stop-color="white"/>
</linearGradient>
<clipPath id="clip0_1404_10048">
<rect width="29.9323" height="30" fill="white"/>
</clipPath>
</defs>
</svg>
