<svg width="30" height="30" viewBox="0 0 30 30" fill="none" xmlns="http://www.w3.org/2000/svg">
<g clip-path="url(#clip0_1404_10041)">
<rect width="30" height="30" rx="5" fill="#2188F7"/>
<path d="M23.7588 9.56789C23.3479 9.98347 22.7778 10.24 22.1461 10.24C22.0654 10.24 21.9859 10.2354 21.9075 10.2273C22.5663 9.83188 23.0747 9.21341 23.3283 8.47506C23.3283 8.47506 23.3294 8.47506 23.3294 8.4739C23.3646 8.37534 23.394 8.27505 23.4182 8.17188C22.8971 8.72925 22.1836 9.1062 21.3841 9.19612C21.2613 9.21111 21.1363 9.21745 21.0106 9.21745C20.9708 9.21745 20.9322 9.21629 20.8936 9.21399C20.6233 8.92983 20.3011 8.69524 19.9431 8.52232C19.5443 8.32808 19.0993 8.21337 18.6295 8.19896C18.5909 8.19666 18.5523 8.19551 18.5125 8.19551C18.1137 8.19551 17.7315 8.26583 17.3782 8.39667C17.2871 8.42952 17.2001 8.46583 17.1136 8.50791C15.9937 9.03243 15.2196 10.1702 15.2196 11.489C15.2196 11.7593 15.2525 12.0227 15.3141 12.2735C14.9712 12.2596 14.6317 12.2268 14.2991 12.1772C14.1925 12.1599 14.0858 12.1421 13.9798 12.1213C13.1302 11.9634 12.3209 11.6919 11.5676 11.323C10.8944 10.9939 10.2661 10.587 9.6949 10.1149C9.21476 9.71833 8.77498 9.27682 8.38188 8.79438C8.36459 8.7742 8.34787 8.7523 8.33173 8.73213C8.30925 8.76729 8.28735 8.80245 8.26833 8.83876C7.99339 9.31889 7.83777 9.87453 7.83777 10.4671C7.83777 10.4855 7.83777 10.5045 7.83892 10.523C7.84584 10.9668 7.93979 11.3893 8.10809 11.7732C8.17957 11.9438 8.26718 12.1046 8.36689 12.2579C8.66085 12.711 9.06317 13.0879 9.53754 13.349C9.55887 13.3629 9.58077 13.3738 9.60325 13.3842C9.56925 13.3911 9.53409 13.3969 9.49893 13.4003C9.40152 13.413 9.30122 13.4193 9.20035 13.4193C8.69486 13.4193 8.2251 13.2614 7.84007 12.9922C7.83777 13.0205 7.83777 13.0493 7.83777 13.0787C7.83777 14.0188 8.23202 14.8672 8.86317 15.4655C9.35483 15.9347 9.99059 16.25 10.6972 16.3422C10.4431 16.4356 10.1681 16.4852 9.88165 16.4852C9.57155 16.4852 9.27529 16.4264 9.00381 16.318C9.40786 17.6328 10.6142 18.5971 12.0518 18.6403C11.1739 19.5521 9.94044 20.1187 8.57555 20.1187C7.7271 20.1187 6.92995 19.8997 6.23828 19.5158C7.89944 20.9533 10.0661 21.822 12.4362 21.822C17.6733 21.822 21.9184 17.5774 21.9184 12.3398C21.9184 12.0516 21.9057 11.7662 21.8798 11.4844C22.7461 11.1426 23.4332 10.4429 23.7583 9.56616L23.7588 9.56789Z" fill="white"/>
</g>
<defs>
<clipPath id="clip0_1404_10041">
<rect width="30" height="30" fill="white"/>
</clipPath>
</defs>
</svg>
