<svg width="25" height="24" viewBox="0 0 25 24" fill="none" xmlns="http://www.w3.org/2000/svg">
<g clip-path="url(#clip0_361_5245)">
<rect x="0.837891" width="23.9799" height="24" rx="7" fill="#2188F7"/>
<path d="M19.8309 7.65588C19.5024 7.98834 19.0467 8.19353 18.5418 8.19353C18.4773 8.19353 18.4137 8.18985 18.351 8.18339C18.8776 7.86707 19.284 7.37229 19.4867 6.78161C19.4867 6.78161 19.4876 6.78161 19.4876 6.78069C19.5157 6.70183 19.5392 6.6216 19.5586 6.53906C19.1421 6.98496 18.5717 7.28653 17.9327 7.35846C17.8346 7.37045 17.7346 7.37552 17.6341 7.37552C17.6023 7.37552 17.5715 7.3746 17.5406 7.37275C17.3245 7.14543 17.067 6.95775 16.7809 6.81942C16.462 6.66402 16.1064 6.57226 15.7309 6.56073C15.7 6.55889 15.6691 6.55797 15.6373 6.55797C15.3185 6.55797 15.0131 6.61422 14.7306 6.7189C14.6578 6.74518 14.5883 6.77423 14.5192 6.80789C13.624 7.2275 13.0052 8.13774 13.0052 9.19277C13.0052 9.40903 13.0315 9.61976 13.0808 9.82034C12.8066 9.80927 12.5353 9.78299 12.2694 9.74334C12.1842 9.7295 12.099 9.71521 12.0142 9.69861C11.3351 9.57226 10.6882 9.35508 10.0861 9.05997C9.54792 8.79667 9.04573 8.47112 8.58915 8.09347C8.20536 7.77623 7.85383 7.42302 7.53961 7.03706C7.52579 7.02092 7.51243 7.0034 7.49953 6.98726C7.48156 7.01539 7.46406 7.04352 7.44885 7.07257C7.22908 7.45668 7.10469 7.90119 7.10469 8.37521C7.10469 8.38997 7.10469 8.40519 7.10561 8.41994C7.11114 8.775 7.18624 9.11299 7.32077 9.4201C7.3779 9.55658 7.44793 9.68524 7.52764 9.80789C7.76261 10.1703 8.08419 10.4719 8.46337 10.6808C8.48042 10.6918 8.49793 10.7006 8.51589 10.7089C8.48871 10.7144 8.46061 10.719 8.4325 10.7218C8.35464 10.732 8.27447 10.737 8.19385 10.737C7.78979 10.737 7.4143 10.6107 7.10653 10.3953C7.10469 10.4179 7.10469 10.441 7.10469 10.4645C7.10469 11.2166 7.41983 11.8953 7.92432 12.374C8.31732 12.7493 8.8255 13.0016 9.39035 13.0753C9.18717 13.15 8.96741 13.1897 8.73843 13.1897C8.49055 13.1897 8.25374 13.1427 8.03674 13.056C8.35971 14.1078 9.32401 14.8792 10.4731 14.9138C9.77137 15.6433 8.78542 16.0965 7.69442 16.0965C7.01623 16.0965 6.37904 15.9213 5.82617 15.6142C7.15399 16.7642 8.88586 17.4591 10.7804 17.4591C14.9665 17.4591 18.3598 14.0635 18.3598 9.87337C18.3598 9.64281 18.3496 9.41456 18.3289 9.18908C19.0214 8.91564 19.5706 8.35585 19.8304 7.65449L19.8309 7.65588Z" fill="white"/>
</g>
<defs>
<clipPath id="clip0_361_5245">
<rect width="23.9799" height="24" fill="white" transform="translate(0.837891)"/>
</clipPath>
</defs>
</svg>
