<svg width="30" height="30" viewBox="0 0 30 30" fill="none" xmlns="http://www.w3.org/2000/svg">
<g clip-path="url(#clip0_1404_10025)">
<path d="M23.2664 0H6.73363C3.01475 0 0 3.01475 0 6.73363V23.2664C0 26.9852 3.01475 30 6.73363 30H23.2664C26.9852 30 30 26.9852 30 23.2664V6.73363C30 3.01475 26.9852 0 23.2664 0Z" fill="#FD3832"/>
<path fill-rule="evenodd" clip-rule="evenodd" d="M8.31553 20.5442C8.01566 20.4533 7.74205 20.2916 7.51779 20.0728C7.29352 19.854 7.12519 19.5844 7.02699 19.2868C6.46586 17.7489 6.29959 11.327 7.3803 10.0593C7.73998 9.64686 8.2478 9.39295 8.79353 9.35265C11.6927 9.04091 20.6501 9.08248 21.6789 9.45657C21.9682 9.55044 22.2326 9.70857 22.4521 9.91913C22.6717 10.1297 22.8407 10.3872 22.9466 10.6724C23.5597 12.2622 23.5805 18.0399 22.8635 19.5674C22.6733 19.965 22.3549 20.2871 21.9594 20.4818C20.8787 21.0222 9.74954 21.0118 8.31553 20.5442ZM12.9189 17.5307L18.1146 14.8289L12.9189 12.1064V17.5307Z" fill="white"/>
</g>
<defs>
<clipPath id="clip0_1404_10025">
<rect width="30" height="30" fill="white"/>
</clipPath>
</defs>
</svg>
