<svg width="570" height="341" viewBox="0 0 570 341" fill="none" xmlns="http://www.w3.org/2000/svg">
<path d="M114.289 341L102.831 295.919L12.3404 318.917L0.380859 271.861L72.6953 107.052L108.563 97.9358L143.436 235.152L172.393 227.793L184.435 275.177L155.478 282.536L166.936 327.617L114.289 341ZM52.2897 258.318L97.0425 246.946L82.2393 188.702L52.2897 258.318Z" fill="#E8A705"/>
<path d="M373.455 190.508C373.455 205.447 371.189 219.197 366.664 231.76C362.134 244.323 355.909 255.186 347.987 264.354C340.062 273.521 330.726 280.652 319.979 285.743C309.225 290.836 297.511 293.383 284.837 293.383C272.158 293.383 260.392 290.836 249.527 285.743C238.661 280.65 229.267 273.52 221.347 264.354C213.421 255.186 207.256 244.323 202.844 231.76C198.43 219.197 196.223 205.447 196.223 190.508C196.223 175.57 198.43 161.818 202.844 149.257C207.258 136.694 213.421 125.831 221.347 116.663C229.267 107.496 238.661 100.314 249.527 95.1046C260.392 89.9008 272.158 87.2952 284.837 87.2952C297.511 87.2952 309.223 89.9008 319.979 95.1046C330.726 100.314 340.062 107.496 347.987 116.663C355.909 125.831 362.134 136.694 366.664 149.257C371.189 161.818 373.455 175.57 373.455 190.508ZM318.791 190.508C318.791 174.667 315.619 161.818 309.284 151.972C302.943 142.127 294.798 137.204 284.839 137.204C274.426 137.204 266.107 142.127 259.884 151.972C253.656 161.818 250.547 174.667 250.547 190.508C250.547 206.353 253.656 219.145 259.884 228.874C266.107 238.608 274.426 243.474 284.839 243.474C294.798 243.474 302.943 238.61 309.284 228.874C315.62 219.145 318.791 206.353 318.791 190.508Z" fill="#E8A705"/>
<path d="M470.933 332.313L478.371 286.398L386.207 271.466L393.972 223.539L525.927 101.148L562.459 107.066L539.817 246.823L569.31 251.601L561.492 299.863L531.998 295.086L524.56 341.001L470.933 332.313ZM446.979 231.784L492.558 239.169L502.168 179.847L446.979 231.784Z" fill="#E8A705"/>
<path d="M210.387 54.5905C206.51 54.5905 202.994 53.8321 199.839 52.317C196.681 50.802 193.974 48.7888 191.714 46.2792C189.451 43.7714 187.7 40.9 186.458 37.6707C185.216 34.4414 184.594 31.1364 184.594 27.7558C184.594 24.2276 185.251 20.8488 186.569 17.6176C187.885 14.3883 189.7 11.5299 192.011 9.04426C194.321 6.55861 197.067 4.58412 200.248 3.11709C203.428 1.65191 206.882 0.919312 210.61 0.919312C214.437 0.919312 217.927 1.70173 221.084 3.26656C224.239 4.83139 226.935 6.88154 229.172 9.41702C231.408 11.9525 233.147 14.8349 234.39 18.0642C235.632 21.2954 236.254 24.5745 236.254 27.9053C236.254 31.4354 235.607 34.7994 234.317 38.0066C233.023 41.2119 231.235 44.0445 228.949 46.5043C226.662 48.9641 223.929 50.9275 220.75 52.3927C217.567 53.8579 214.114 54.5905 210.387 54.5905ZM195.03 27.754C195.03 30.0403 195.377 32.2529 196.072 34.3879C196.768 36.5248 197.774 38.4144 199.091 40.053C200.407 41.6935 202.024 43.0093 203.937 44.0039C205.849 44.9985 208.025 45.4949 210.46 45.4949C212.944 45.4949 215.144 44.9856 217.057 43.967C218.971 42.9502 220.586 41.5939 221.903 39.9036C223.219 38.2151 224.214 36.3144 224.885 34.2015C225.557 32.0886 225.891 29.9407 225.891 27.7521C225.891 25.4676 225.529 23.2551 224.81 21.1182C224.088 18.9813 223.069 17.0936 221.754 15.4531C220.436 13.8126 218.822 12.5098 216.91 11.5391C214.996 10.5703 212.846 10.085 210.462 10.085C207.977 10.085 205.766 10.5943 203.826 11.613C201.889 12.6316 200.274 13.9731 198.982 15.6376C197.689 17.3039 196.709 19.1917 196.037 21.3027C195.366 23.4193 195.03 25.5673 195.03 27.754Z" fill="white"/>
<path d="M261.228 54.9626C258.047 54.9626 255.19 54.4164 252.657 53.3221C250.121 52.2297 247.972 50.7498 246.207 48.8878C244.443 47.024 243.089 44.8742 242.144 42.4384C241.199 40.0044 240.727 37.4431 240.727 34.76C240.727 32.0271 241.199 29.4437 242.144 27.0078C243.087 24.5739 244.443 22.4241 246.207 20.5603C247.972 18.6965 250.121 17.2184 252.657 16.1241C255.19 15.0317 258.047 14.4836 261.228 14.4836C264.408 14.4836 267.253 15.0317 269.765 16.1241C272.273 17.2184 274.411 18.6965 276.175 20.5603C277.94 22.4241 279.294 24.5739 280.239 27.0078C281.182 29.4437 281.654 32.0271 281.654 34.76C281.654 37.4431 281.182 40.0044 280.239 42.4384C279.294 44.8742 277.952 47.0222 276.214 48.8878C274.474 50.7516 272.337 52.2315 269.804 53.3221C267.266 54.4146 264.408 54.9626 261.228 54.9626ZM251.014 34.76C251.014 36.5002 251.277 38.0779 251.797 39.4933C252.319 40.9105 253.039 42.1395 253.958 43.1839C254.877 44.2265 255.958 45.0348 257.2 45.6068C258.442 46.1789 259.783 46.4649 261.227 46.4649C262.668 46.4649 264.009 46.1789 265.251 45.6068C266.493 45.0366 267.574 44.2284 268.493 43.1839C269.412 42.1395 270.134 40.8976 270.654 39.4564C271.176 38.0152 271.437 36.4264 271.437 34.6862C271.437 32.9978 271.175 31.4329 270.654 29.9899C270.132 28.5487 269.412 27.3068 268.493 26.2623C267.573 25.2179 266.491 24.4115 265.251 23.8394C264.009 23.2674 262.668 22.9813 261.227 22.9813C259.783 22.9813 258.442 23.2803 257.2 23.8763C255.958 24.4724 254.877 25.2935 253.958 26.3361C253.037 27.3806 252.317 28.6225 251.797 30.0637C251.275 31.5067 251.014 33.0716 251.014 34.76Z" fill="white"/>
<path d="M311.762 54.9626C308.68 54.9626 305.997 54.2799 303.712 52.9125C301.426 51.5469 299.636 49.6961 298.344 47.3599V70.0961H288.355V15.1553H297.076V21.8631C298.518 19.5786 300.381 17.7757 302.668 16.4581C304.952 15.1424 307.587 14.4836 310.568 14.4836C313.203 14.4836 315.637 15.0188 317.873 16.0872C320.11 17.1557 322.036 18.5969 323.651 20.4108C325.266 22.2248 326.533 24.3616 327.454 26.8215C328.373 29.2813 328.833 31.8795 328.833 34.6124C328.833 37.445 328.41 40.1041 327.565 42.5879C326.72 45.0735 325.539 47.2363 324.024 49.0742C322.507 50.914 320.706 52.3533 318.619 53.3978C316.534 54.4404 314.247 54.9626 311.762 54.9626ZM308.409 46.4649C309.9 46.4649 311.278 46.142 312.546 45.4961C313.812 44.8502 314.893 43.9811 315.788 42.8868C316.681 41.7944 317.377 40.5267 317.875 39.0836C318.373 37.6424 318.621 36.1532 318.621 34.6124C318.621 32.9719 318.347 31.444 317.801 30.0286C317.253 28.6114 316.497 27.3824 315.528 26.338C314.559 25.2954 313.415 24.4742 312.099 23.8782C310.782 23.2821 309.353 22.9832 307.814 22.9832C306.87 22.9832 305.901 23.1456 304.908 23.4685C303.913 23.7914 302.994 24.2509 302.149 24.8488C301.304 25.4449 300.548 26.1424 299.876 26.9359C299.206 27.7312 298.695 28.6022 298.348 29.5452V38.7146C299.243 40.9511 300.61 42.8019 302.448 44.2671C304.282 45.7323 306.272 46.4649 308.409 46.4649Z" fill="white"/>
<path d="M350.383 54.9609C347.104 54.9609 343.897 54.4387 340.767 53.3961C337.636 52.3534 334.953 50.8606 332.716 48.923L336.444 42.6618C338.83 44.3521 341.153 45.6309 343.413 46.5001C345.676 47.3711 347.923 47.8047 350.16 47.8047C352.145 47.8047 353.712 47.432 354.856 46.6865C355.999 45.941 356.571 44.8725 356.571 43.4811C356.571 42.0898 355.901 41.0711 354.557 40.4253C353.216 39.7794 351.029 39.0339 347.997 38.1888C345.464 37.4931 343.301 36.8214 341.511 36.1755C339.721 35.5296 338.28 34.7971 337.187 33.9759C336.093 33.1566 335.3 32.2118 334.801 31.1433C334.303 30.0749 334.058 28.7942 334.058 27.3032C334.058 25.3158 334.441 23.5277 335.213 21.9352C335.982 20.3463 337.064 18.99 338.455 17.8718C339.846 16.7535 341.476 15.8973 343.338 15.3012C345.202 14.7052 347.224 14.4062 349.413 14.4062C352.345 14.4062 355.089 14.8288 357.65 15.674C360.21 16.5191 362.557 17.8847 364.694 19.7743L360.667 25.8122C358.68 24.3212 356.755 23.2287 354.889 22.533C353.026 21.8374 351.175 21.4904 349.337 21.4904C347.647 21.4904 346.229 21.8392 345.087 22.533C343.943 23.2287 343.371 24.347 343.371 25.8878C343.371 26.5835 343.508 27.1556 343.782 27.6021C344.054 28.0487 344.491 28.4473 345.087 28.7942C345.683 29.143 346.466 29.4788 347.434 29.7999C348.403 30.1247 349.608 30.4587 351.049 30.8056C353.732 31.5013 356.03 32.197 357.943 32.8927C359.857 33.5884 361.422 34.3837 362.64 35.2768C363.858 36.1718 364.753 37.2034 365.325 38.3696C365.895 39.5377 366.181 40.942 366.181 42.5825C366.181 46.4097 364.766 49.4286 361.931 51.6393C359.106 53.8555 355.253 54.9609 350.383 54.9609Z" fill="white"/>
<path d="M374.603 34.3125V0.766357H384.592V34.3125H374.603ZM374.603 54.2161V42.9596H384.592V54.2161H374.603Z" fill="white"/>
</svg>
