<svg width="20" height="20" viewBox="0 0 20 20" fill="none" xmlns="http://www.w3.org/2000/svg">
<path d="M10 0C8.02219 0 6.08879 0.58649 4.4443 1.6853C2.79981 2.78412 1.51809 4.3459 0.761209 6.17316C0.00433265 8.00043 -0.1937 10.0111 0.192152 11.9509C0.578004 13.8907 1.53041 15.6725 2.92894 17.0711C4.32746 18.4696 6.10929 19.422 8.0491 19.8078C9.98891 20.1937 11.9996 19.9957 13.8268 19.2388C15.6541 18.4819 17.2159 17.2002 18.3147 15.5557C19.4135 13.9112 20 11.9778 20 10C19.9969 7.34879 18.9423 4.80706 17.0676 2.93237C15.1929 1.05768 12.6512 0.00311358 10 0ZM10 18.8235C8.25487 18.8235 6.54893 18.306 5.09791 17.3365C3.64689 16.367 2.51596 14.9889 1.84813 13.3766C1.18029 11.7643 1.00556 9.99021 1.34602 8.27861C1.68647 6.56702 2.52683 4.99481 3.76083 3.76082C4.99482 2.52683 6.56702 1.68647 8.27862 1.34601C9.99021 1.00555 11.7643 1.18029 13.3766 1.84812C14.9889 2.51595 16.367 3.64689 17.3365 5.09791C18.306 6.54893 18.8235 8.25487 18.8235 10C18.8209 12.3393 17.8905 14.5821 16.2363 16.2363C14.5821 17.8905 12.3394 18.8209 10 18.8235ZM14.5098 10C14.5098 10.156 14.4478 10.3056 14.3375 10.4159C14.2272 10.5263 14.0776 10.5882 13.9216 10.5882H10.5882V13.9216C10.5882 14.0776 10.5263 14.2272 10.4159 14.3375C10.3056 14.4478 10.156 14.5098 10 14.5098C9.84399 14.5098 9.69437 14.4478 9.58406 14.3375C9.47374 14.2272 9.41177 14.0776 9.41177 13.9216V10.5882H6.07843C5.92242 10.5882 5.77281 10.5263 5.66249 10.4159C5.55217 10.3056 5.4902 10.156 5.4902 10C5.4902 9.84399 5.55217 9.69437 5.66249 9.58405C5.77281 9.47374 5.92242 9.41176 6.07843 9.41176H9.41177V6.07843C9.41177 5.92242 9.47374 5.7728 9.58406 5.66249C9.69437 5.55217 9.84399 5.4902 10 5.4902C10.156 5.4902 10.3056 5.55217 10.4159 5.66249C10.5263 5.7728 10.5882 5.92242 10.5882 6.07843V9.41176H13.9216C14.0776 9.41176 14.2272 9.47374 14.3375 9.58405C14.4478 9.69437 14.5098 9.84399 14.5098 10Z" fill="white"/>
</svg>
