<svg width="60" height="60" viewBox="0 0 60 60" fill="none" xmlns="http://www.w3.org/2000/svg">
<path d="M29.9227 0.622253C24.0629 0.622253 18.3347 2.35989 13.4624 5.61544C8.59015 8.87099 4.79268 13.4982 2.55022 18.912C0.307759 24.3258 -0.27897 30.2829 0.864225 36.0302C2.00742 41.7774 4.8292 47.0566 8.97272 51.2001C13.1162 55.3436 18.3954 58.1654 24.1426 59.3086C29.8899 60.4518 35.847 59.8651 41.2608 57.6226C46.6746 55.3801 51.3018 51.5827 54.5574 46.7104C57.8129 41.8381 59.5506 36.1099 59.5506 30.2501C59.5413 22.3951 56.4169 14.8645 50.8626 9.31023C45.3083 3.75593 37.7777 0.631478 29.9227 0.622253ZM29.9227 56.3923C24.7523 56.3923 19.698 54.859 15.3989 51.9865C11.0999 49.114 7.74916 45.0311 5.77052 40.2542C3.79188 35.4774 3.27417 30.2211 4.28287 25.15C5.29158 20.0789 7.78138 15.4208 11.4374 11.7647C15.0935 8.1087 19.7516 5.6189 24.8227 4.61019C29.8937 3.60149 35.1501 4.11919 39.9269 6.09783C44.7038 8.07647 48.7866 11.4272 51.6592 15.7262C54.5317 20.0253 56.0649 25.0796 56.0649 30.2501C56.0572 37.181 53.3005 43.826 48.3996 48.7269C43.4986 53.6278 36.8537 56.3846 29.9227 56.3923ZM43.2843 30.2501C43.2843 30.7123 43.1007 31.1556 42.7739 31.4824C42.447 31.8093 42.0037 31.9929 41.5415 31.9929H31.6656V41.8688C31.6656 42.331 31.4819 42.7743 31.1551 43.1012C30.8283 43.428 30.385 43.6116 29.9227 43.6116C29.4605 43.6116 29.0172 43.428 28.6904 43.1012C28.3636 42.7743 28.1799 42.331 28.1799 41.8688V31.9929H18.304C17.8418 31.9929 17.3985 31.8093 17.0716 31.4824C16.7448 31.1556 16.5612 30.7123 16.5612 30.2501C16.5612 29.7878 16.7448 29.3446 17.0716 29.0177C17.3985 28.6909 17.8418 28.5073 18.304 28.5073H28.1799V18.6313C28.1799 18.1691 28.3636 17.7258 28.6904 17.399C29.0172 17.0721 29.4605 16.8885 29.9227 16.8885C30.385 16.8885 30.8283 17.0721 31.1551 17.399C31.4819 17.7258 31.6656 18.1691 31.6656 18.6313V28.5073H41.5415C42.0037 28.5073 42.447 28.6909 42.7739 29.0177C43.1007 29.3446 43.2843 29.7878 43.2843 30.2501Z" fill="#818181"/>
</svg>
