<svg width="24" height="24" viewBox="0 0 24 24" fill="none" xmlns="http://www.w3.org/2000/svg">
<path d="M20.3333 2.69231H17.8333V1.84615C17.8333 1.62174 17.7455 1.40652 17.5893 1.24783C17.433 1.08915 17.221 1 17 1C16.779 1 16.567 1.08915 16.4107 1.24783C16.2545 1.40652 16.1667 1.62174 16.1667 1.84615V2.69231H7.83333V1.84615C7.83333 1.62174 7.74554 1.40652 7.58926 1.24783C7.43297 1.08915 7.22101 1 7 1C6.77899 1 6.56702 1.08915 6.41074 1.24783C6.25446 1.40652 6.16667 1.62174 6.16667 1.84615V2.69231H3.66667C3.22464 2.69231 2.80072 2.8706 2.48816 3.18797C2.17559 3.50534 2 3.93579 2 4.38462V21.3077C2 21.7565 2.17559 22.187 2.48816 22.5043C2.80072 22.8217 3.22464 23 3.66667 23H20.3333C20.7754 23 21.1993 22.8217 21.5118 22.5043C21.8244 22.187 22 21.7565 22 21.3077V4.38462C22 3.93579 21.8244 3.50534 21.5118 3.18797C21.1993 2.8706 20.7754 2.69231 20.3333 2.69231ZM6.16667 4.38462V5.23077C6.16667 5.45518 6.25446 5.67041 6.41074 5.82909C6.56702 5.98777 6.77899 6.07692 7 6.07692C7.22101 6.07692 7.43297 5.98777 7.58926 5.82909C7.74554 5.67041 7.83333 5.45518 7.83333 5.23077V4.38462H16.1667V5.23077C16.1667 5.45518 16.2545 5.67041 16.4107 5.82909C16.567 5.98777 16.779 6.07692 17 6.07692C17.221 6.07692 17.433 5.98777 17.5893 5.82909C17.7455 5.67041 17.8333 5.45518 17.8333 5.23077V4.38462H20.3333V7.76923H3.66667V4.38462H6.16667ZM20.3333 21.3077H3.66667V9.46154H20.3333V21.3077ZM13.25 13.2692C13.25 13.5203 13.1767 13.7657 13.0393 13.9744C12.902 14.1831 12.7068 14.3458 12.4784 14.4418C12.2499 14.5379 11.9986 14.563 11.7561 14.5141C11.5137 14.4651 11.2909 14.3442 11.1161 14.1667C10.9413 13.9892 10.8222 13.7631 10.774 13.5168C10.7258 13.2706 10.7505 13.0154 10.8451 12.7835C10.9398 12.5516 11.1 12.3534 11.3055 12.2139C11.5111 12.0744 11.7528 12 12 12C12.3315 12 12.6495 12.1337 12.8839 12.3717C13.1183 12.6098 13.25 12.9326 13.25 13.2692ZM17.8333 13.2692C17.8333 13.5203 17.76 13.7657 17.6227 13.9744C17.4853 14.1831 17.2901 14.3458 17.0617 14.4418C16.8333 14.5379 16.5819 14.563 16.3395 14.5141C16.097 14.4651 15.8743 14.3442 15.6995 14.1667C15.5246 13.9892 15.4056 13.7631 15.3574 13.5168C15.3091 13.2706 15.3339 13.0154 15.4285 12.7835C15.5231 12.5516 15.6833 12.3534 15.8889 12.2139C16.0944 12.0744 16.3361 12 16.5833 12C16.9149 12 17.2328 12.1337 17.4672 12.3717C17.7016 12.6098 17.8333 12.9326 17.8333 13.2692ZM8.66667 17.5C8.66667 17.751 8.59336 17.9964 8.456 18.2051C8.31865 18.4139 8.12343 18.5766 7.89502 18.6726C7.66661 18.7687 7.41528 18.7938 7.1728 18.7448C6.93033 18.6959 6.7076 18.575 6.53278 18.3975C6.35797 18.22 6.23892 17.9938 6.19068 17.7476C6.14245 17.5014 6.16721 17.2462 6.26182 17.0143C6.35643 16.7824 6.51664 16.5841 6.7222 16.4447C6.92777 16.3052 7.16944 16.2308 7.41667 16.2308C7.74819 16.2308 8.06613 16.3645 8.30055 16.6025C8.53497 16.8405 8.66667 17.1634 8.66667 17.5ZM13.25 17.5C13.25 17.751 13.1767 17.9964 13.0393 18.2051C12.902 18.4139 12.7068 18.5766 12.4784 18.6726C12.2499 18.7687 11.9986 18.7938 11.7561 18.7448C11.5137 18.6959 11.2909 18.575 11.1161 18.3975C10.9413 18.22 10.8222 17.9938 10.774 17.7476C10.7258 17.5014 10.7505 17.2462 10.8451 17.0143C10.9398 16.7824 11.1 16.5841 11.3055 16.4447C11.5111 16.3052 11.7528 16.2308 12 16.2308C12.3315 16.2308 12.6495 16.3645 12.8839 16.6025C13.1183 16.8405 13.25 17.1634 13.25 17.5ZM17.8333 17.5C17.8333 17.751 17.76 17.9964 17.6227 18.2051C17.4853 18.4139 17.2901 18.5766 17.0617 18.6726C16.8333 18.7687 16.5819 18.7938 16.3395 18.7448C16.097 18.6959 15.8743 18.575 15.6995 18.3975C15.5246 18.22 15.4056 17.9938 15.3574 17.7476C15.3091 17.5014 15.3339 17.2462 15.4285 17.0143C15.5231 16.7824 15.6833 16.5841 15.8889 16.4447C16.0944 16.3052 16.3361 16.2308 16.5833 16.2308C16.9149 16.2308 17.2328 16.3645 17.4672 16.6025C17.7016 16.8405 17.8333 17.1634 17.8333 17.5Z" fill="#E8A705"/>
</svg>
