<svg width="119" height="119" viewBox="0 0 119 119" fill="none" xmlns="http://www.w3.org/2000/svg">
<rect x="0.00976562" width="118.916" height="118.916" rx="59.458" fill="#2F2B1F"/>
<path d="M78.2018 39.8916C75.4517 37.091 71.8502 35.3212 67.9846 34.871C64.1191 34.4207 60.2177 35.3165 56.9168 37.4123C53.6158 39.5081 51.1102 42.6802 49.8086 46.4111C48.507 50.142 48.4862 54.2117 49.7496 57.9562L37.3714 70.5515C37.084 70.843 36.8561 71.1894 36.7009 71.5709C36.5456 71.9524 36.466 72.3613 36.4668 72.7742V79.2156C36.4668 80.0492 36.7923 80.8487 37.3716 81.4382C37.9509 82.0276 38.7366 82.3588 39.5558 82.3588H46.6165C46.9676 82.3588 47.3043 82.2169 47.5526 81.9642C47.8009 81.7116 47.9403 81.369 47.9403 81.0117V76.9704H51.912C52.2631 76.9704 52.5998 76.8285 52.8481 76.5759C53.0963 76.3232 53.2358 75.9806 53.2358 75.6233V71.582H57.2074C57.5584 71.5817 57.8949 71.4396 58.143 71.1869L60.4487 68.8429C62.2459 69.4704 64.1332 69.7891 66.0332 69.7859H66.0553C69.457 69.7811 72.781 68.7506 75.6075 66.8246C78.434 64.8986 80.6362 62.1635 81.9359 58.9647C83.2356 55.7659 83.5746 52.2469 82.91 48.8522C82.2454 45.4575 80.607 42.3394 78.2018 39.8916ZM80.5958 52.7586C80.3487 60.6526 73.8286 67.0827 66.0597 67.0917C64.2079 67.0957 62.3724 66.7398 60.6517 66.0432C60.4078 65.9352 60.1376 65.9043 59.8763 65.9548C59.615 66.0053 59.3746 66.1347 59.1866 66.3261L56.658 68.8878H51.912C51.5608 68.8878 51.2241 69.0298 50.9758 69.2824C50.7276 69.535 50.5881 69.8777 50.5881 70.2349V74.2762H46.6165C46.2654 74.2762 45.9286 74.4182 45.6804 74.6708C45.4321 74.9234 45.2926 75.266 45.2926 75.6233V79.6646H39.5558C39.4388 79.6646 39.3266 79.6173 39.2438 79.5331C39.161 79.4489 39.1145 79.3347 39.1145 79.2156V72.7742C39.1144 72.6556 39.1605 72.5418 39.2425 72.4576L52.2231 59.2494C52.4112 59.0581 52.5384 58.8135 52.588 58.5476C52.6376 58.2817 52.6073 58.0067 52.5011 57.7586C51.8148 56.0082 51.465 54.1402 51.4707 52.2557C51.4707 44.3505 57.7988 37.7161 65.5544 37.4556C67.5475 37.3878 69.533 37.7372 71.3879 38.4822C73.2429 39.2272 74.9276 40.3519 76.3378 41.7867C77.748 43.2214 78.8536 44.9356 79.5861 46.8229C80.3185 48.7103 80.6622 50.7306 80.5958 52.7586ZM72.6526 47.7833C72.6526 48.2274 72.5232 48.6615 72.2807 49.0307C72.0383 49.3999 71.6937 49.6877 71.2905 49.8576C70.8873 50.0275 70.4437 50.072 70.0157 49.9854C69.5877 49.8987 69.1945 49.6849 68.8859 49.3709C68.5774 49.0569 68.3672 48.6569 68.2821 48.2214C68.1969 47.7858 68.2406 47.3344 68.4076 46.9242C68.5746 46.5139 68.8574 46.1633 69.2203 45.9166C69.5831 45.6699 70.0097 45.5382 70.4461 45.5382C71.0313 45.5382 71.5925 45.7747 72.0063 46.1958C72.4201 46.6168 72.6526 47.1879 72.6526 47.7833Z" fill="#E8A705"/>
</svg>
