<svg width="18" height="18" viewBox="0 0 18 18" fill="none" xmlns="http://www.w3.org/2000/svg">
<path d="M16.0313 12.305C15.967 12.3416 15.8962 12.3652 15.8228 12.3745C15.7494 12.3837 15.6749 12.3784 15.6036 12.3588C15.5323 12.3392 15.4656 12.3057 15.4072 12.2603C15.3488 12.2149 15.3 12.1584 15.2635 12.0941L13.9275 9.75969C13.1508 10.2848 12.2941 10.6805 11.3907 10.9311L11.8034 13.4075C11.8156 13.4804 11.8133 13.555 11.7966 13.627C11.7799 13.699 11.7492 13.767 11.7063 13.8272C11.6633 13.8873 11.6089 13.9384 11.5462 13.9775C11.4835 14.0166 11.4136 14.043 11.3407 14.0551C11.3107 14.06 11.2804 14.0626 11.25 14.0628C11.117 14.0626 10.9883 14.0152 10.8868 13.9291C10.7854 13.843 10.7178 13.7237 10.696 13.5924L10.2903 11.161C9.43469 11.2801 8.56676 11.2801 7.7112 11.161L7.30549 13.5924C7.28366 13.7239 7.21583 13.8434 7.1141 13.9296C7.01236 14.0157 6.88334 14.063 6.75003 14.0628C6.71893 14.0627 6.6879 14.0601 6.65721 14.0551C6.5843 14.043 6.51449 14.0166 6.45176 13.9775C6.38904 13.9384 6.33464 13.8873 6.29168 13.8272C6.24871 13.767 6.21802 13.699 6.20135 13.627C6.18469 13.555 6.18238 13.4804 6.19456 13.4075L6.6094 10.9311C5.70633 10.6797 4.85004 10.2833 4.07393 9.75758L2.74221 12.0941C2.70528 12.1584 2.65603 12.2149 2.59728 12.2602C2.53853 12.3055 2.47142 12.3388 2.3998 12.3582C2.32817 12.3776 2.25343 12.3827 2.17984 12.3732C2.10625 12.3637 2.03524 12.3398 1.97088 12.3029C1.90653 12.266 1.85007 12.2167 1.80475 12.158C1.75942 12.0992 1.72611 12.0321 1.70672 11.9605C1.68733 11.8889 1.68224 11.8141 1.69173 11.7405C1.70123 11.6669 1.72512 11.5959 1.76206 11.5316L3.16831 9.07063C2.67436 8.64389 2.22015 8.17321 1.81128 7.66438C1.76028 7.60745 1.72143 7.54072 1.69708 7.46827C1.67274 7.39582 1.66341 7.31917 1.66968 7.243C1.67594 7.16683 1.69766 7.09273 1.73352 7.02523C1.76937 6.95773 1.8186 6.89825 1.87821 6.85041C1.93782 6.80257 2.00655 6.76738 2.0802 6.74699C2.15386 6.7266 2.23091 6.72143 2.30663 6.7318C2.38235 6.74218 2.45517 6.76787 2.52063 6.80732C2.58609 6.84677 2.64282 6.89915 2.68737 6.96126C3.85456 8.40547 5.89643 10.1253 9.00003 10.1253C12.1036 10.1253 14.1455 8.40336 15.3127 6.96126C15.3567 6.89788 15.4133 6.84424 15.479 6.80368C15.5446 6.76312 15.6179 6.7365 15.6943 6.72549C15.7707 6.71447 15.8485 6.71929 15.923 6.73965C15.9974 6.76 16.0669 6.79546 16.127 6.84381C16.1872 6.89217 16.2367 6.95238 16.2726 7.02071C16.3085 7.08903 16.3299 7.16401 16.3356 7.24098C16.3413 7.31795 16.331 7.39526 16.3055 7.4681C16.28 7.54094 16.2398 7.60775 16.1874 7.66438C15.7785 8.17321 15.3243 8.64389 14.8303 9.07063L16.2366 11.5316C16.2743 11.5957 16.299 11.6667 16.3091 11.7405C16.3192 11.8142 16.3146 11.8892 16.2955 11.9612C16.2764 12.0331 16.2432 12.1005 16.1978 12.1596C16.1525 12.2186 16.0959 12.268 16.0313 12.305Z" fill="#707078"/>
</svg>
