<svg width="66" height="67" viewBox="0 0 66 67" fill="none" xmlns="http://www.w3.org/2000/svg">
<path d="M48.5291 42.6407C48.2391 42.9304 47.8459 43.0931 47.436 43.0931C47.026 43.0931 46.6329 42.9304 46.3428 42.6407L40.7328 37.0333V53.9226C40.7328 54.3329 40.5699 54.7263 40.2798 55.0164C39.9897 55.3065 39.5962 55.4695 39.186 55.4695C38.7757 55.4695 38.3823 55.3065 38.0922 55.0164C37.8021 54.7263 37.6391 54.3329 37.6391 53.9226V37.0333L32.0291 42.6407C31.7359 42.914 31.348 43.0627 30.9473 43.0557C30.5465 43.0486 30.1642 42.8863 29.8807 42.6028C29.5973 42.3194 29.435 41.9371 29.4279 41.5363C29.4208 41.1356 29.5696 40.7477 29.8428 40.4545L38.0928 32.2045C38.3829 31.9148 38.776 31.7521 39.186 31.7521C39.5959 31.7521 39.9891 31.9148 40.2791 32.2045L48.5291 40.4545C48.8188 40.7445 48.9815 41.1377 48.9815 41.5476C48.9815 41.9575 48.8188 42.3507 48.5291 42.6407ZM41.2485 11.1257C37.0664 11.1291 32.9704 12.3138 29.4323 14.5433C25.8941 16.7729 23.0578 19.9565 21.25 23.7276C19.069 23.3562 16.8347 23.4416 14.6884 23.9783C12.5421 24.515 10.5307 25.4915 8.78128 26.8458C7.0319 28.2002 5.58272 29.9029 4.52544 31.8463C3.46817 33.7897 2.82583 35.9314 2.63908 38.1359C2.45233 40.3403 2.72524 42.5596 3.44053 44.6531C4.15582 46.7466 5.29791 48.6689 6.79453 50.2982C8.29115 51.9275 10.1097 53.2284 12.1351 54.1186C14.1605 55.0087 16.3486 55.4687 18.561 55.4695H28.8735C29.2837 55.4695 29.6772 55.3065 29.9673 55.0164C30.2574 54.7263 30.4203 54.3329 30.4203 53.9226C30.4203 53.5124 30.2574 53.1189 29.9673 52.8288C29.6772 52.5387 29.2837 52.3757 28.8735 52.3757H18.561C15.1422 52.3757 11.8634 51.0176 9.44592 48.6002C7.02846 46.1827 5.67034 42.9039 5.67034 39.4851C5.67034 36.0663 7.02846 32.7875 9.44592 30.3701C11.8634 27.9526 15.1422 26.5945 18.561 26.5945C19.0702 26.5957 19.579 26.6267 20.0846 26.6873C19.4146 28.8267 19.0747 31.0558 19.0766 33.2976C19.0766 33.7079 19.2396 34.1013 19.5297 34.3914C19.8198 34.6815 20.2132 34.8445 20.6235 34.8445C21.0337 34.8445 21.4272 34.6815 21.7173 34.3914C22.0074 34.1013 22.1703 33.7079 22.1703 33.2976C22.1716 29.8583 23.1026 26.4834 24.8648 23.5298C26.627 20.5763 29.1548 18.154 32.1808 16.5193C35.2068 14.8847 38.6184 14.0984 42.0546 14.2437C45.4908 14.389 48.8238 15.4605 51.701 17.3449C54.5781 19.2292 56.8924 21.8562 58.3989 24.948C59.9055 28.0398 60.5482 31.4813 60.2591 34.9084C59.97 38.3356 58.7598 41.6208 56.7567 44.4165C54.7535 47.2122 52.0319 49.4145 48.8797 50.7902C48.5036 50.9543 48.2082 51.2611 48.0583 51.643C47.9084 52.025 47.9164 52.4508 48.0805 52.8269C48.2446 53.203 48.5514 53.4985 48.9333 53.6483C49.3153 53.7982 49.7411 53.7902 50.1172 53.6261C54.7904 51.5914 58.6198 48.0087 60.9609 43.4812C63.3019 38.9537 64.0116 33.7579 62.9704 28.7685C61.9292 23.779 59.2008 19.3006 55.2444 16.0872C51.2881 12.8739 46.3454 11.1217 41.2485 11.1257Z" fill="white"/>
</svg>
