<svg width="24" height="24" viewBox="0 0 24 24" fill="none" xmlns="http://www.w3.org/2000/svg">
<g clip-path="url(#clip0_750_5655)">
<path d="M12.5 1C15.6751 1 18.5501 2.28746 20.6313 4.36869C22.7125 6.44947 24 9.32492 24 12.5C24 15.6751 22.7125 18.5505 20.6313 20.6313C18.5505 22.7125 15.6751 24 12.5 24C9.32492 24 6.44947 22.7125 4.36869 20.6313C2.28746 18.5501 1 15.6751 1 12.5C1 9.32492 2.28746 6.44947 4.36869 4.36869C6.44947 2.28746 9.32492 1 12.5 1ZM13.9793 10.6735C13.9501 10.3446 13.818 10.0917 13.584 9.90756C13.4213 9.78043 13.2098 9.69688 12.9497 9.65824V11.5643L13.4227 11.6712C13.8724 11.7696 14.2722 11.8994 14.6194 12.0629C14.9649 12.226 15.2555 12.4227 15.4918 12.6482C15.7285 12.8724 15.9082 13.1338 16.0295 13.4267C16.1508 13.7219 16.2137 14.0525 16.2177 14.4164C16.2137 14.9941 16.0672 15.4878 15.7806 15.9019C15.4918 16.3143 15.0776 16.6324 14.5381 16.852C14.0875 17.0362 13.5579 17.1422 12.9497 17.1719V18.2055H12.2174V17.1714C11.607 17.14 11.0652 17.0295 10.5917 16.8372C10.0226 16.609 9.58143 16.2618 9.26742 15.7955C8.95162 15.3287 8.79035 14.7389 8.78182 14.0255H10.8954C10.912 14.318 10.9915 14.5651 11.1294 14.7596C11.2696 14.9563 11.4623 15.1046 11.7071 15.2052C11.8626 15.2699 12.0324 15.3135 12.2174 15.3373V13.3257L11.5625 13.1734C10.7719 12.9919 10.1506 12.6986 9.69418 12.2929C9.24002 11.8868 9.01451 11.3388 9.01631 10.6461C9.01451 10.0814 9.1668 9.58547 9.47271 9.16051C9.77818 8.736 10.2004 8.40537 10.7427 8.16684C11.1847 7.97367 11.6757 7.85867 12.2174 7.82318V6.79447H12.9497V7.82139C13.5085 7.85553 14.0044 7.97143 14.4352 8.16908C14.9586 8.40941 15.3624 8.74453 15.6513 9.17533C15.9397 9.60658 16.0861 10.1043 16.0924 10.6735H13.9793ZM12.2174 9.65824C12.0899 9.67666 11.9753 9.70541 11.8742 9.74449C11.6838 9.81951 11.5418 9.92238 11.4475 10.05C11.3513 10.1793 11.3033 10.328 11.2988 10.4933C11.2947 10.6317 11.3221 10.7507 11.3828 10.8554C11.4434 10.9601 11.5333 11.0499 11.6505 11.1294C11.7678 11.2089 11.9102 11.2781 12.075 11.3365C12.1213 11.3527 12.1685 11.3684 12.2174 11.3837V9.65824ZM12.9497 15.3319C13.0858 15.3117 13.2098 15.2798 13.3221 15.2366C13.5314 15.1571 13.6927 15.0462 13.8054 14.9042C13.9186 14.7596 13.977 14.5965 13.9793 14.4123C13.977 14.2407 13.9227 14.0925 13.818 13.9685C13.7133 13.8454 13.5543 13.7385 13.3391 13.6487C13.2255 13.6001 13.0957 13.5543 12.9497 13.5098V15.3319ZM19.5563 5.44322C17.7509 3.63781 15.2555 2.52061 12.5 2.52061C9.74404 2.52061 7.24908 3.63781 5.44322 5.44322C3.63781 7.24908 2.52061 9.74404 2.52061 12.5C2.52061 15.2555 3.63781 17.7509 5.44322 19.5563C7.24908 21.3622 9.74404 22.4789 12.5 22.4789C15.256 22.4789 17.7509 21.3622 19.5563 19.5563C21.3622 17.7509 22.4789 15.256 22.4789 12.5C22.4789 9.74404 21.3622 7.24908 19.5563 5.44322Z" fill="white"/>
</g>
<defs>
<clipPath id="clip0_750_5655">
<rect width="24" height="24" fill="white"/>
</clipPath>
</defs>
</svg>
