<svg width="25" height="24" viewBox="0 0 25 24" fill="none" xmlns="http://www.w3.org/2000/svg">
<path d="M21.5996 13.5V19.5C21.5996 19.6989 21.5206 19.8897 21.3799 20.0303C21.2393 20.171 21.0485 20.25 20.8496 20.25H4.34961C4.1507 20.25 3.95993 20.171 3.81928 20.0303C3.67863 19.8897 3.59961 19.6989 3.59961 19.5V13.5C3.59961 13.3011 3.67863 13.1103 3.81928 12.9697C3.95993 12.829 4.1507 12.75 4.34961 12.75C4.54852 12.75 4.73929 12.829 4.87994 12.9697C5.02059 13.1103 5.09961 13.3011 5.09961 13.5V18.75H20.0996V13.5C20.0996 13.3011 20.1786 13.1103 20.3193 12.9697C20.4599 12.829 20.6507 12.75 20.8496 12.75C21.0485 12.75 21.2393 12.829 21.3799 12.9697C21.5206 13.1103 21.5996 13.3011 21.5996 13.5ZM12.069 14.0306C12.1386 14.1004 12.2214 14.1557 12.3124 14.1934C12.4035 14.2312 12.501 14.2506 12.5996 14.2506C12.6982 14.2506 12.7958 14.2312 12.8868 14.1934C12.9779 14.1557 13.0606 14.1004 13.1302 14.0306L16.8802 10.2806C16.9499 10.2109 17.0052 10.1282 17.0429 10.0372C17.0806 9.94613 17.1 9.84855 17.1 9.75C17.1 9.65145 17.0806 9.55387 17.0429 9.46283C17.0052 9.37178 16.9499 9.28906 16.8802 9.21937C16.8106 9.14969 16.7278 9.09442 16.6368 9.0567C16.5457 9.01899 16.4482 8.99958 16.3496 8.99958C16.2511 8.99958 16.1535 9.01899 16.0624 9.0567C15.9714 9.09442 15.8887 9.14969 15.819 9.21937L13.3496 11.6897V3C13.3496 2.80109 13.2706 2.61032 13.1299 2.46967C12.9893 2.32902 12.7985 2.25 12.5996 2.25C12.4007 2.25 12.2099 2.32902 12.0693 2.46967C11.9286 2.61032 11.8496 2.80109 11.8496 3V11.6897L9.38023 9.21937C9.2395 9.07864 9.04863 8.99958 8.84961 8.99958C8.65059 8.99958 8.45971 9.07864 8.31898 9.21937C8.17825 9.36011 8.09919 9.55098 8.09919 9.75C8.09919 9.94902 8.17825 10.1399 8.31898 10.2806L12.069 14.0306Z" fill="#E8A705"/>
</svg>
