<svg width="38" height="38" viewBox="0 0 38 38" fill="none" xmlns="http://www.w3.org/2000/svg">
<rect x="1.5" y="1.5" width="35" height="35" rx="17.5" fill="#E8A705"/>
<rect x="1.5" y="1.5" width="35" height="35" rx="17.5" stroke="#1A1D22" stroke-width="3"/>
<path d="M20.8297 16.3333L21.6652 17.1689L13.5952 25.2222H12.7775V24.4044L20.8297 16.3333ZM24.0293 11C23.8071 11 23.576 11.0889 23.4072 11.2578L21.7807 12.8844L25.1136 16.2178L26.74 14.5911C27.0867 14.2444 27.0867 13.6667 26.74 13.3378L24.6603 11.2578C24.4826 11.08 24.2604 11 24.0293 11ZM20.8297 13.8356L11 23.6667V27H14.3329L24.1626 17.1689L20.8297 13.8356Z" fill="white"/>
</svg>
