<svg width="20" height="20" viewBox="0 0 20 20" fill="none" xmlns="http://www.w3.org/2000/svg">
<path fill-rule="evenodd" clip-rule="evenodd" d="M13.8625 16.7688H5.79216H5.78069C5.33661 16.7754 4.89572 16.6929 4.48408 16.5262C4.07243 16.3595 3.69837 16.1119 3.38402 15.7982C3.00534 15.4024 2.70886 14.9354 2.5117 14.4244C2.31454 13.9133 2.22061 13.3682 2.23534 12.8206V7.1855C2.23534 4.89387 3.73356 3.23074 5.79709 3.23074H13.8527C15.9162 3.23074 17.4144 4.89387 17.4144 7.1855V12.8206C17.4294 13.3682 17.3355 13.9134 17.1384 14.4245C16.9412 14.9356 16.6446 15.4025 16.2657 15.7982C15.9506 16.1127 15.5755 16.3608 15.1627 16.5275C14.7498 16.6943 14.3077 16.7763 13.8625 16.7688ZM4.0087 17.6663C4.57032 17.8946 5.17202 18.0079 5.77821 17.9996H13.8625C14.4691 18.008 15.0712 17.8948 15.6332 17.6665C16.1953 17.4382 16.7058 17.0994 17.1346 16.6704C17.6279 16.1602 18.0151 15.5573 18.2738 14.8965C18.5325 14.2356 18.6576 13.5301 18.6419 12.8206V7.1855C18.6419 4.22928 16.5816 2 13.8494 2H5.79381C3.06158 2 1.00132 4.23174 1.00132 7.1855V12.8206C0.985558 13.5301 1.11066 14.2356 1.36938 14.8965C1.6281 15.5573 2.01529 16.1602 2.50857 16.6704C2.93697 17.0993 3.44709 17.438 4.0087 17.6663ZM8.29006 10.8608C8.73162 11.2126 9.27946 11.4044 9.84408 11.4047C10.4118 11.4049 10.9628 11.2125 11.4071 10.8591L15.0534 7.8955C15.18 7.79246 15.2605 7.64334 15.2772 7.48092C15.2939 7.31851 15.2454 7.15614 15.1424 7.02949C15.0393 6.90284 14.8902 6.82231 14.7278 6.80561C14.5654 6.78892 14.403 6.83741 14.2763 6.94045L10.6367 9.89915C10.4124 10.0776 10.1343 10.1748 9.84776 10.1748C9.56119 10.1748 9.28309 10.0776 9.05887 9.89915L5.38224 6.93554C5.31943 6.88375 5.24699 6.84493 5.16908 6.82134C5.09117 6.79774 5.00936 6.78983 4.92837 6.79808C4.84739 6.80632 4.76884 6.83057 4.69728 6.86939C4.62573 6.9082 4.56259 6.96081 4.51152 7.02421C4.46045 7.0876 4.42247 7.16049 4.39977 7.23867C4.37707 7.31684 4.37008 7.39876 4.37926 7.47965C4.38843 7.56053 4.41357 7.63878 4.4532 7.70988C4.49283 7.78099 4.5462 7.84353 4.61017 7.89387L8.29006 10.8608Z" fill="white"/>
</svg>
