<svg width="23" height="18" viewBox="0 0 23 18" fill="none" xmlns="http://www.w3.org/2000/svg">
<path fill-rule="evenodd" clip-rule="evenodd" d="M18.1156 9C20.5456 9 22.5156 6.98524 22.5156 4.5C22.5156 2.01472 20.5456 0 18.1156 0C16.0654 0 14.3427 1.43412 13.8542 3.375H1.61563C1.00812 3.375 0.515625 3.87868 0.515625 4.5C0.515625 5.12133 1.00812 5.625 1.61563 5.625H13.8542C14.3427 7.56585 16.0654 9 18.1156 9ZM15.9156 4.5C15.9156 5.74264 16.9006 6.75 18.1156 6.75C19.3307 6.75 20.3156 5.74264 20.3156 4.5C20.3156 3.25736 19.3307 2.25 18.1156 2.25C16.9006 2.25 15.9156 3.25736 15.9156 4.5ZM0.515625 13.5C0.515625 11.0148 2.48557 9 4.91563 9C6.96585 9 8.68856 10.4341 9.177 12.375H21.4156C22.0232 12.375 22.5156 12.8787 22.5156 13.5C22.5156 14.1213 22.0232 14.625 21.4156 14.625H9.177C8.68856 16.5658 6.96585 18 4.91563 18C2.48557 18 0.515625 15.9852 0.515625 13.5ZM7.11563 13.5C7.11563 12.2573 6.13065 11.25 4.91563 11.25C3.7006 11.25 2.71563 12.2573 2.71563 13.5C2.71563 14.7427 3.7006 15.75 4.91563 15.75C6.13065 15.75 7.11563 14.7427 7.11563 13.5Z" fill="#E8A705"/>
</svg>
