<svg width="47" height="46" viewBox="0 0 47 46" fill="none" xmlns="http://www.w3.org/2000/svg">
<g clip-path="url(#clip0_278_837)">
<path d="M32.125 0H14.875C11.0625 0 7.40618 1.5145 4.71034 4.21034C2.0145 6.90618 0.5 10.5625 0.5 14.375L0.5 31.625C0.5 35.4375 2.0145 39.0938 4.71034 41.7897C7.40618 44.4855 11.0625 46 14.875 46H32.125C35.9375 46 39.5938 44.4855 42.2897 41.7897C44.9855 39.0938 46.5 35.4375 46.5 31.625V14.375C46.5 10.5625 44.9855 6.90618 42.2897 4.21034C39.5938 1.5145 35.9375 0 32.125 0ZM42.1875 31.625C42.1875 37.1737 37.6737 41.6875 32.125 41.6875H14.875C9.32625 41.6875 4.8125 37.1737 4.8125 31.625V14.375C4.8125 8.82625 9.32625 4.3125 14.875 4.3125H32.125C37.6737 4.3125 42.1875 8.82625 42.1875 14.375V31.625Z" fill="url(#paint0_linear_278_837)"/>
<path d="M23.5 11.5C20.45 11.5 17.5249 12.7116 15.3683 14.8683C13.2116 17.0249 12 19.95 12 23C12 26.05 13.2116 28.9751 15.3683 31.1317C17.5249 33.2884 20.45 34.5 23.5 34.5C26.55 34.5 29.4751 33.2884 31.6317 31.1317C33.7884 28.9751 35 26.05 35 23C35 19.95 33.7884 17.0249 31.6317 14.8683C29.4751 12.7116 26.55 11.5 23.5 11.5ZM23.5 30.1875C21.5945 30.1852 19.7676 29.4272 18.4202 28.0798C17.0728 26.7324 16.3148 24.9055 16.3125 23C16.3125 19.0354 19.5382 15.8125 23.5 15.8125C27.4618 15.8125 30.6875 19.0354 30.6875 23C30.6875 26.9618 27.4618 30.1875 23.5 30.1875Z" fill="url(#paint1_linear_278_837)"/>
<path d="M35.8664 12.1692C36.7127 12.1692 37.3987 11.4832 37.3987 10.6369C37.3987 9.79056 36.7127 9.10449 35.8664 9.10449C35.0201 9.10449 34.334 9.79056 34.334 10.6369C34.334 11.4832 35.0201 12.1692 35.8664 12.1692Z" fill="url(#paint2_linear_278_837)"/>
</g>
<defs>
<linearGradient id="paint0_linear_278_837" x1="4.709" y1="41.791" x2="42.291" y2="4.209" gradientUnits="userSpaceOnUse">
<stop stop-color="#FFC107"/>
<stop offset="0.507" stop-color="#F44336"/>
<stop offset="0.99" stop-color="#9C27B0"/>
</linearGradient>
<linearGradient id="paint1_linear_278_837" x1="15.3695" y1="31.1305" x2="31.6305" y2="14.8695" gradientUnits="userSpaceOnUse">
<stop stop-color="#FFC107"/>
<stop offset="0.507" stop-color="#F44336"/>
<stop offset="0.99" stop-color="#9C27B0"/>
</linearGradient>
<linearGradient id="paint2_linear_278_837" x1="34.7825" y1="11.7207" x2="36.9502" y2="9.55299" gradientUnits="userSpaceOnUse">
<stop stop-color="#FFC107"/>
<stop offset="0.507" stop-color="#F44336"/>
<stop offset="0.99" stop-color="#9C27B0"/>
</linearGradient>
<clipPath id="clip0_278_837">
<rect width="46" height="46" fill="white" transform="translate(0.5)"/>
</clipPath>
</defs>
</svg>
