<svg width="18" height="18" viewBox="0 0 18 18" fill="none" xmlns="http://www.w3.org/2000/svg">
<path fill-rule="evenodd" clip-rule="evenodd" d="M0.624023 7.5446C0.624023 3.92532 3.64847 1 7.30685 1C10.9755 1 14 3.92532 14 7.5446C14 9.3684 13.3367 11.0616 12.245 12.4967C11.0406 14.0798 9.55615 15.459 7.88524 16.5416C7.50282 16.7918 7.15769 16.8107 6.73798 16.5416C5.05756 15.459 3.5731 14.0798 2.37903 12.4967C1.28651 11.0616 0.624023 9.3684 0.624023 7.5446ZM5.10547 7.74747C5.10547 8.95993 6.09484 9.91353 7.30795 9.91353C8.52186 9.91353 9.52075 8.95993 9.52075 7.74747C9.52075 6.54446 8.52186 5.54443 7.30795 5.54443C6.09484 5.54443 5.10547 6.54446 5.10547 7.74747Z" fill="#E8A705"/>
</svg>
