<svg width="22" height="22" viewBox="0 0 22 22" fill="none" xmlns="http://www.w3.org/2000/svg">
<g clip-path="url(#clip0_606_73886)">
<path d="M20.625 10.3125H18.5307C18.3678 8.55259 17.5944 6.90509 16.3447 5.65532C15.0949 4.40556 13.4474 3.63224 11.6875 3.4693V1.375C11.6875 1.19266 11.6151 1.0178 11.4861 0.888864C11.3572 0.759933 11.1823 0.6875 11 0.6875C10.8177 0.6875 10.6428 0.759933 10.5139 0.888864C10.3849 1.0178 10.3125 1.19266 10.3125 1.375V3.4693C8.55259 3.63224 6.90509 4.40556 5.65532 5.65532C4.40556 6.90509 3.63224 8.55259 3.4693 10.3125H1.375C1.19266 10.3125 1.0178 10.3849 0.888864 10.5139C0.759933 10.6428 0.6875 10.8177 0.6875 11C0.6875 11.1823 0.759933 11.3572 0.888864 11.4861C1.0178 11.6151 1.19266 11.6875 1.375 11.6875H3.4693C3.63224 13.4474 4.40556 15.0949 5.65532 16.3447C6.90509 17.5944 8.55259 18.3678 10.3125 18.5307V20.625C10.3125 20.8073 10.3849 20.9822 10.5139 21.1111C10.6428 21.2401 10.8177 21.3125 11 21.3125C11.1823 21.3125 11.3572 21.2401 11.4861 21.1111C11.6151 20.9822 11.6875 20.8073 11.6875 20.625V18.5307C13.4474 18.3678 15.0949 17.5944 16.3447 16.3447C17.5944 15.0949 18.3678 13.4474 18.5307 11.6875H20.625C20.8073 11.6875 20.9822 11.6151 21.1111 11.4861C21.2401 11.3572 21.3125 11.1823 21.3125 11C21.3125 10.8177 21.2401 10.6428 21.1111 10.5139C20.9822 10.3849 20.8073 10.3125 20.625 10.3125ZM11 17.1875C9.77623 17.1875 8.57994 16.8246 7.56241 16.1447C6.54488 15.4648 5.75181 14.4985 5.2835 13.3679C4.81518 12.2372 4.69265 10.9931 4.93139 9.79288C5.17014 8.59262 5.75944 7.49011 6.62478 6.62478C7.49011 5.75944 8.59262 5.17014 9.79288 4.93139C10.9931 4.69265 12.2372 4.81518 13.3679 5.2835C14.4985 5.75181 15.4648 6.54488 16.1447 7.56241C16.8246 8.57994 17.1875 9.77623 17.1875 11C17.1857 12.6405 16.5332 14.2132 15.3732 15.3732C14.2132 16.5332 12.6405 17.1857 11 17.1875ZM11 7.5625C10.3201 7.5625 9.65552 7.76411 9.09023 8.14182C8.52493 8.51954 8.08434 9.05641 7.82416 9.68453C7.56399 10.3126 7.49591 11.0038 7.62855 11.6706C7.76119 12.3374 8.08858 12.9499 8.56932 13.4307C9.05006 13.9114 9.66257 14.2388 10.3294 14.3714C10.9962 14.5041 11.6874 14.436 12.3155 14.1758C12.9436 13.9157 13.4805 13.4751 13.8582 12.9098C14.2359 12.3445 14.4375 11.6799 14.4375 11C14.4375 10.0883 14.0753 9.21398 13.4307 8.56932C12.786 7.92466 11.9117 7.5625 11 7.5625ZM11 13.0625C10.5921 13.0625 10.1933 12.9415 9.85414 12.7149C9.51496 12.4883 9.2506 12.1662 9.0945 11.7893C8.93839 11.4124 8.89755 10.9977 8.97713 10.5976C9.05671 10.1975 9.25315 9.83004 9.54159 9.54159C9.83004 9.25315 10.1975 9.05671 10.5976 8.97713C10.9977 8.89755 11.4124 8.93839 11.7893 9.0945C12.1662 9.2506 12.4883 9.51496 12.7149 9.85414C12.9415 10.1933 13.0625 10.5921 13.0625 11C13.0625 11.547 12.8452 12.0716 12.4584 12.4584C12.0716 12.8452 11.547 13.0625 11 13.0625Z" fill="#818181"/>
</g>
<defs>
<clipPath id="clip0_606_73886">
<rect width="22" height="22" fill="white"/>
</clipPath>
</defs>
</svg>
