<svg width="21" height="24" viewBox="0 0 21 24" fill="none" xmlns="http://www.w3.org/2000/svg">
<path fill-rule="evenodd" clip-rule="evenodd" d="M4.02261 4.02275C5.63782 2.40755 7.8285 1.50012 10.1127 1.50012C12.397 1.50012 14.5876 2.40755 16.2028 4.02275C17.8181 5.63796 18.7255 7.82862 18.7255 10.1129C18.7255 13.1699 16.9045 16.253 14.7951 18.6278C13.7516 19.8027 12.6663 20.7712 11.7617 21.4401C11.3086 21.7751 10.9121 22.0266 10.5981 22.1906C10.2945 22.3491 10.145 22.3842 10.1171 22.3907L10.1127 22.3918L10.1084 22.3907C10.0805 22.3842 9.93097 22.3491 9.6274 22.1906C9.31332 22.0266 8.91683 21.7751 8.46374 21.4401C7.55919 20.7712 6.47389 19.8027 5.43035 18.6278C3.32099 16.253 1.5 13.1699 1.5 10.1129C1.5 7.82862 2.40741 5.63796 4.02261 4.02275ZM10.1127 0.00012207C7.43066 0.00012207 4.85845 1.06559 2.96195 2.96209C1.06545 4.8586 0 7.43079 0 10.1129C0 13.7183 2.11136 17.1499 4.30885 19.6239C5.41874 20.8735 6.58049 21.9131 7.5719 22.6462C8.06678 23.0121 8.5305 23.3101 8.93325 23.5203C9.29969 23.7116 9.72801 23.892 10.1127 23.892C10.4974 23.892 10.9258 23.7116 11.2922 23.5203C11.695 23.3101 12.1587 23.0121 12.6536 22.6462C13.645 21.9131 14.8067 20.8735 15.9166 19.6239C18.1141 17.1499 20.2255 13.7183 20.2255 10.1129C20.2255 7.43079 19.16 4.8586 17.2635 2.96209C15.367 1.06559 12.7948 0.00012207 10.1127 0.00012207ZM11.5944 6.45787C10.8871 6.1649 10.1088 6.08822 9.35791 6.23759C8.60702 6.38695 7.91731 6.75563 7.37596 7.29698C6.83461 7.83833 6.46593 8.52804 6.31656 9.27893C6.1672 10.0298 6.24388 10.8081 6.53685 11.5154C6.82982 12.2227 7.32595 12.8273 7.96253 13.2527C8.5991 13.678 9.34751 13.905 10.1131 13.905C11.1397 13.905 12.1243 13.4972 12.8502 12.7713C13.5762 12.0453 13.984 11.0608 13.984 10.0341C13.984 9.26852 13.757 8.52013 13.3316 7.88357C12.9063 7.247 12.3018 6.75085 11.5944 6.45787ZM9.65055 7.70876C10.1105 7.61728 10.5872 7.66424 11.0204 7.84369C11.4536 8.02314 11.8239 8.32703 12.0844 8.71692C12.345 9.10682 12.484 9.5652 12.484 10.0341C12.484 10.6629 12.2342 11.266 11.7896 11.7106C11.3449 12.1552 10.7419 12.405 10.1131 12.405C9.64417 12.405 9.18578 12.266 8.79589 12.0055C8.40601 11.745 8.10213 11.3747 7.92267 10.9414C7.74322 10.5082 7.69626 10.0315 7.78774 9.57157C7.87922 9.11167 8.10503 8.68923 8.43662 8.35764C8.76821 8.02605 9.19065 7.80024 9.65055 7.70876Z" fill="#E8A705"/>
</svg>
