<svg width="20" height="20" viewBox="0 0 20 20" fill="none" xmlns="http://www.w3.org/2000/svg">
<path fill-rule="evenodd" clip-rule="evenodd" d="M8.90998 15.593C10.3895 15.593 11.7791 15.012 12.823 13.955V13.962C13.0926 13.689 13.5282 13.689 13.7978 13.962C14.0674 14.235 14.0674 14.676 13.7978 14.949C12.4911 16.272 10.7559 17 8.90998 17C7.06409 17 5.32882 16.272 4.02218 14.949C1.32594 12.219 1.32594 7.781 4.02218 5.051C5.32882 3.728 7.06409 3 8.90998 3C10.7559 3 12.4911 3.728 13.7978 5.051C14.0674 5.324 14.0674 5.765 13.7978 6.038C13.5282 6.311 13.0926 6.311 12.823 6.038C11.7791 4.981 10.3895 4.4 8.90998 4.4C7.43051 4.4 6.0409 4.981 4.99698 6.038C2.83998 8.222 2.83998 11.771 4.99698 13.955C6.0409 15.012 7.43051 15.593 8.90998 15.593ZM16.07 7.05199L18.7812 9.67045L18.7953 9.66362C18.9298 9.79352 19.0006 9.96443 19.0006 10.149C19.0006 10.3336 18.9228 10.5045 18.7883 10.6344L16.0771 13.2119C15.9426 13.3418 15.7656 13.4101 15.5816 13.4101C15.3976 13.4101 15.2206 13.3418 15.079 13.205C14.7959 12.9384 14.8029 12.5077 15.079 12.2411L16.5585 10.8327H10.1805C9.7912 10.8327 9.47266 10.525 9.47266 10.149C9.47266 9.77301 9.7912 9.46535 10.1805 9.46535H16.5726L15.0719 8.01597C14.7959 7.74934 14.7959 7.31863 15.0719 7.05199C15.348 6.78536 15.794 6.78536 16.07 7.05199Z" fill="#E8A705"/>
</svg>
