<svg width="90" height="90" viewBox="0 0 90 90" fill="none" xmlns="http://www.w3.org/2000/svg">
<circle cx="45" cy="45" r="45" fill="#E8A705"/>
<path d="M66.0644 35.8397L46.1894 22.5897C45.9853 22.4535 45.7454 22.3809 45.5 22.3809C45.2546 22.3809 45.0147 22.4535 44.8106 22.5897L24.9356 35.8397C24.7653 35.9534 24.6257 36.1073 24.5293 36.2879C24.4328 36.4685 24.3825 36.6702 24.3828 36.8749V58.4061C24.3828 59.1749 24.6882 59.9121 25.2317 60.4556C25.7753 60.9992 26.5125 61.3046 27.2813 61.3046H63.7188C64.4875 61.3046 65.2247 60.9992 65.7683 60.4556C66.3118 59.9121 66.6172 59.1749 66.6172 58.4061V36.8749C66.6175 36.6702 66.5672 36.4685 66.4707 36.2879C66.3743 36.1073 66.2347 35.9534 66.0644 35.8397ZM39.7404 48.4686L26.8672 57.5573V39.2868L39.7404 48.4686ZM42.2807 49.7108H48.7193L61.6153 58.8202H29.3847L42.2807 49.7108ZM51.2596 48.4686L64.1328 39.2868V57.5573L51.2596 48.4686ZM45.5 25.1176L63.1867 36.9184L48.7152 47.2265H42.2848L27.8133 36.9101L45.5 25.1176Z" fill="white"/>
</svg>
