<svg width="62" height="62" viewBox="0 0 62 62" fill="none" xmlns="http://www.w3.org/2000/svg">
<rect width="61.4824" height="61.4824" rx="30.7412" fill="#2F2B1F"/>
<path d="M41.9928 36.618C41.3424 35.4977 40.3756 32.3277 40.3756 28.1875C40.3756 25.7011 39.3879 23.3165 37.6297 21.5584C35.8716 19.8002 33.487 18.8125 31.0006 18.8125C28.5142 18.8125 26.1296 19.8002 24.3715 21.5584C22.6133 23.3165 21.6256 25.7011 21.6256 28.1875C21.6256 32.3289 20.6576 35.4977 20.0072 36.618C19.8411 36.9028 19.7531 37.2264 19.752 37.5561C19.7508 37.8858 19.8367 38.2099 20.0008 38.4959C20.1649 38.7818 20.4015 39.0195 20.6868 39.1848C20.9721 39.3501 21.2959 39.4373 21.6256 39.4375H26.408C26.6243 40.4959 27.1995 41.4471 28.0364 42.1302C28.8732 42.8133 29.9203 43.1864 31.0006 43.1864C32.0809 43.1864 33.128 42.8133 33.9648 42.1302C34.8017 41.4471 35.3769 40.4959 35.5932 39.4375H40.3756C40.7052 39.4371 41.0289 39.3497 41.314 39.1843C41.5991 39.0189 41.8355 38.7813 41.9995 38.4954C42.1635 38.2095 42.2492 37.8854 42.2481 37.5558C42.2469 37.2262 42.1588 36.9027 41.9928 36.618ZM31.0006 41.3125C30.4191 41.3123 29.852 41.1319 29.3773 40.7961C28.9026 40.4604 28.5436 39.9857 28.3498 39.4375H33.6514C33.4576 39.9857 33.0986 40.4604 32.6239 40.7961C32.1492 41.1319 31.5821 41.3123 31.0006 41.3125ZM21.6256 37.5625C22.5279 36.0109 23.5006 32.4156 23.5006 28.1875C23.5006 26.1984 24.2908 24.2907 25.6973 22.8842C27.1038 21.4777 29.0115 20.6875 31.0006 20.6875C32.9897 20.6875 34.8974 21.4777 36.3039 22.8842C37.7104 24.2907 38.5006 26.1984 38.5006 28.1875C38.5006 32.4121 39.4709 36.0074 40.3756 37.5625H21.6256Z" fill="#E8A705"/>
</svg>
