<svg width="90" height="90" viewBox="0 0 90 90" fill="none" xmlns="http://www.w3.org/2000/svg">
<circle cx="45" cy="45" r="45" fill="#E8A705"/>
<g clip-path="url(#clip0_1286_7818)">
<path d="M39.8789 53.0423L33.4283 46.5961C32.5858 45.7542 31.2244 45.7542 30.3819 46.5961C29.5394 47.4381 29.5394 48.7989 30.3819 49.6409L38.3652 57.6186C39.2077 58.4605 40.5691 58.4605 41.4116 57.6186L61.6181 37.4261C62.4606 36.5842 62.4606 35.2234 61.6181 34.3814C60.7756 33.5395 59.4142 33.5395 58.5717 34.3814M39.8789 53.0423L58.5717 34.3814M39.8789 53.0423L58.5717 34.3814M39.8789 53.0423L58.5717 34.3814M58.5717 34.3814L58.5718 34.3813L58.7484 34.5583L58.5717 34.3814Z" fill="white" stroke="white" stroke-width="0.5"/>
</g>
<defs>
<clipPath id="clip0_1286_7818">
<rect width="53" height="53" fill="white" transform="translate(19 19)"/>
</clipPath>
</defs>
</svg>
