<svg width="20" height="20" viewBox="0 0 20 20" fill="none" xmlns="http://www.w3.org/2000/svg">
<path fill-rule="evenodd" clip-rule="evenodd" d="M12.954 5.77209V6.96315H6.09534V5.7577C6.10128 4.85217 6.46521 3.98576 7.10772 3.34763C7.75023 2.70951 8.61908 2.3515 9.52463 2.35176H9.53364C10.4408 2.35176 11.3108 2.71213 11.9522 3.35356C12.5936 3.995 12.954 4.86496 12.954 5.77209ZM4.7452 5.77209V7.1916C4.16842 7.39283 3.63844 7.72253 3.1984 8.16276C2.43241 8.92908 2.00143 9.96784 2 11.0514V14.9118C2.00143 15.9954 2.43241 17.0341 3.1984 17.8004C3.96439 18.5667 5.00294 18.9981 6.08645 19H12.9632C14.0481 19 15.0886 18.5696 15.8565 17.8031C16.6243 17.0366 17.0566 15.9968 17.0585 14.9118V11.0514C17.0566 9.96643 16.6243 8.9266 15.8565 8.16012C15.4148 7.71921 14.8829 7.38948 14.3042 7.18892V5.77121C14.3023 4.50659 13.799 3.2943 12.9048 2.40008C12.0106 1.50585 10.7983 1.00262 9.53364 1.00072C8.9066 0.989669 8.28391 1.10659 7.70357 1.34429C7.12323 1.582 6.59742 1.93552 6.1583 2.38326C5.70961 2.82606 5.35359 3.35377 5.11097 3.9356C4.86835 4.51742 4.74404 5.14171 4.7452 5.77209ZM13.5373 8.37576C13.5118 8.37217 13.4866 8.36714 13.4618 8.36072C13.2984 8.33055 13.1316 8.31507 12.9632 8.31507H6.08645C5.36058 8.31555 4.66455 8.60424 4.15145 9.11767C3.63835 9.63111 3.35014 10.3273 3.35014 11.0531V14.9136C3.35014 15.6395 3.63835 16.3357 4.15145 16.8491C4.66455 17.3626 5.36058 17.6512 6.08645 17.6517H12.9632C13.69 17.6517 14.3871 17.3635 14.9018 16.8502C15.4164 16.3369 15.7065 15.6405 15.7084 14.9136V11.0531C15.7065 10.3263 15.4164 9.62989 14.9018 9.1166C14.5248 8.74065 14.05 8.48542 13.5373 8.37576ZM9.04846 14.4641C9.17491 14.5905 9.34617 14.6619 9.52499 14.6626C9.61415 14.6631 9.70253 14.6458 9.78495 14.6118C9.86736 14.5777 9.94219 14.5276 10.005 14.4644C10.0679 14.4011 10.1175 14.326 10.1509 14.2433C10.1844 14.1607 10.2011 14.0722 10.2001 13.983V11.9839C10.2001 11.8049 10.129 11.6332 10.0024 11.5066C9.87579 11.38 9.70402 11.3089 9.52499 11.3089C9.34595 11.3089 9.17429 11.38 9.04769 11.5066C8.92109 11.6332 8.84992 11.8049 8.84992 11.9839V13.9875C8.85063 14.1664 8.92201 14.3376 9.04846 14.4641Z" fill="white"/>
</svg>
