<svg width="62" height="62" viewBox="0 0 62 62" fill="none" xmlns="http://www.w3.org/2000/svg">
<rect width="61.4824" height="61.4824" rx="30.7412" fill="#2F2B1F"/>
<path d="M41.5492 21.4751H19.6492C19.1652 21.4751 18.701 21.6674 18.3587 22.0096C18.0165 22.3519 17.8242 22.8161 17.8242 23.3001V37.9001C17.8242 38.3841 18.0165 38.8483 18.3587 39.1906C18.701 39.5328 19.1652 39.7251 19.6492 39.7251H41.5492C42.0332 39.7251 42.4974 39.5328 42.8397 39.1906C43.1819 38.8483 43.3742 38.3841 43.3742 37.9001V23.3001C43.3742 22.8161 43.1819 22.3519 42.8397 22.0096C42.4974 21.6674 42.0332 21.4751 41.5492 21.4751ZM41.5492 23.3001V26.0376H19.6492V23.3001H41.5492ZM41.5492 37.9001H19.6492V27.8626H41.5492V37.9001ZM39.7242 35.1626C39.7242 35.4046 39.6281 35.6367 39.457 35.8078C39.2858 35.979 39.0537 36.0751 38.8117 36.0751H35.1617C34.9197 36.0751 34.6876 35.979 34.5165 35.8078C34.3454 35.6367 34.2492 35.4046 34.2492 35.1626C34.2492 34.9206 34.3454 34.6885 34.5165 34.5174C34.6876 34.3462 34.9197 34.2501 35.1617 34.2501H38.8117C39.0537 34.2501 39.2858 34.3462 39.457 34.5174C39.6281 34.6885 39.7242 34.9206 39.7242 35.1626ZM32.4242 35.1626C32.4242 35.4046 32.3281 35.6367 32.157 35.8078C31.9858 35.979 31.7537 36.0751 31.5117 36.0751H29.6867C29.4447 36.0751 29.2126 35.979 29.0415 35.8078C28.8704 35.6367 28.7742 35.4046 28.7742 35.1626C28.7742 34.9206 28.8704 34.6885 29.0415 34.5174C29.2126 34.3462 29.4447 34.2501 29.6867 34.2501H31.5117C31.7537 34.2501 31.9858 34.3462 32.157 34.5174C32.3281 34.6885 32.4242 34.9206 32.4242 35.1626Z" fill="#E8A705"/>
</svg>
