<svg width="12" height="12" viewBox="0 0 12 12" fill="none" xmlns="http://www.w3.org/2000/svg">
<path d="M10.375 0.296875H1.625C1.42194 0.296875 1.2272 0.377539 1.08362 0.521121C0.940039 0.664704 0.859375 0.859444 0.859375 1.0625V4.125C0.859375 6.96547 2.23312 8.68594 3.38594 9.62875C4.62898 10.6459 5.86164 10.9899 5.91359 11.0041C5.97016 11.0196 6.02984 11.0196 6.08641 11.0041C6.13836 10.9899 7.37102 10.6459 8.61406 9.62875C9.76688 8.68594 11.1406 6.96547 11.1406 4.125V1.0625C11.1406 0.859444 11.06 0.664704 10.9164 0.521121C10.7728 0.377539 10.5781 0.296875 10.375 0.296875ZM10.4844 4.125C10.4844 6.19 9.72203 7.86508 8.21812 9.10484C7.55838 9.64661 6.80722 10.0663 6 10.3441C5.19267 10.0665 4.44147 9.64684 3.78188 9.10484C2.27797 7.86508 1.51562 6.19 1.51562 4.125V1.0625C1.51562 1.03349 1.52715 1.00567 1.54766 0.98516C1.56817 0.964648 1.59599 0.953125 1.625 0.953125H10.375C10.404 0.953125 10.4318 0.964648 10.4523 0.98516C10.4729 1.00567 10.4844 1.03349 10.4844 1.0625V4.125ZM8.41938 3.45562C8.48082 3.51715 8.51534 3.60055 8.51534 3.6875C8.51534 3.77445 8.48082 3.85785 8.41938 3.91937L5.35687 6.98187C5.29535 7.04332 5.21195 7.07784 5.125 7.07784C5.03805 7.07784 4.95465 7.04332 4.89313 6.98187L3.58063 5.66937C3.52267 5.60717 3.49111 5.5249 3.49261 5.4399C3.49411 5.35489 3.52855 5.27378 3.58867 5.21367C3.64878 5.15355 3.72989 5.11911 3.8149 5.11761C3.8999 5.11611 3.98217 5.14766 4.04437 5.20562L5.125 6.2857L7.95562 3.45562C8.01715 3.39418 8.10055 3.35966 8.1875 3.35966C8.27445 3.35966 8.35785 3.39418 8.41938 3.45562Z" fill="white" stroke="white" stroke-width="0.3"/>
</svg>
