<svg width="20" height="20" viewBox="0 0 20 20" fill="none" xmlns="http://www.w3.org/2000/svg">
<path fill-rule="evenodd" clip-rule="evenodd" d="M8.56949 2.49495C8.99831 2.3192 9.45756 2.22964 9.92099 2.23137C10.8569 2.23137 11.7546 2.60315 12.4164 3.26497C13.0782 3.92678 13.4499 4.82439 13.4499 5.76034C13.4499 6.69628 13.0782 7.5939 12.4164 8.25571C11.7546 8.91752 10.8569 9.28931 9.92099 9.28931V9.9384L9.89464 9.28931C9.43121 9.28758 8.97263 9.1946 8.54514 9.01566C8.11764 8.83671 7.72957 8.57531 7.40309 8.24639C7.07662 7.91747 6.81815 7.52748 6.6424 7.09866C6.46665 6.66984 6.37706 6.21059 6.37879 5.74716C6.38052 5.28373 6.47355 4.82518 6.6525 4.39769C6.83144 3.97019 7.09282 3.58212 7.42174 3.25564C7.75066 2.92917 8.14068 2.6707 8.56949 2.49495ZM9.89186 10.5865H9.92099C11.2036 10.5827 12.4322 10.07 13.3371 9.16103C14.242 8.25206 14.7491 7.02112 14.7472 5.73853C14.7452 4.45594 14.2344 3.22656 13.3268 2.32031C12.4192 1.41406 11.189 0.90506 9.90646 0.90506C8.62387 0.90506 7.39365 1.41406 6.48604 2.32031C5.57843 3.22656 5.06761 4.45594 5.06569 5.73853C5.06376 7.02112 5.5709 8.25206 6.47578 9.16103C7.38066 10.07 8.60928 10.5827 9.89186 10.5865ZM4.08382 15.6392C4.08382 14.3256 6.04742 13.6602 9.92093 13.6602C13.7935 13.6602 15.7562 14.3465 15.7562 15.6601C15.7562 16.9737 13.7944 17.6392 9.92093 17.6392C6.04742 17.6392 4.08382 16.9528 4.08382 15.6392ZM9.9209 19H9.92093V18.9964C13.0108 18.9964 17.1198 18.65 17.1198 15.6574C17.1198 12.2939 11.7018 12.2939 9.92096 12.2939H9.92093C6.83012 12.2939 2.72023 12.6366 2.72023 15.6365C2.72023 19 8.14002 19 9.9209 19Z" fill="white"/>
</svg>
