<svg width="14" height="14" viewBox="0 0 14 14" fill="none" xmlns="http://www.w3.org/2000/svg">
<path d="M7 1.42188C5.89675 1.42187 4.81828 1.74903 3.90096 2.36196C2.98364 2.97489 2.26868 3.84607 1.84649 4.86534C1.42429 5.88461 1.31383 7.00619 1.52906 8.08824C1.74429 9.17029 2.27556 10.1642 3.05567 10.9443C3.83579 11.7244 4.82971 12.2557 5.91176 12.4709C6.99381 12.6862 8.11539 12.5757 9.13466 12.1535C10.1539 11.7313 11.0251 11.0164 11.638 10.099C12.251 9.18172 12.5781 8.10325 12.5781 7C12.5764 5.52112 11.9881 4.10331 10.9424 3.05759C9.89669 2.01186 8.47888 1.42361 7 1.42188ZM11.9219 7C11.9225 7.67482 11.7836 8.34249 11.5139 8.96109L8.96055 7.39102C8.86981 7.33397 8.76807 7.2967 8.66195 7.28164L7.41399 7.11375C7.25293 7.09289 7.0894 7.12357 6.94685 7.20138C6.8043 7.27918 6.69005 7.40013 6.62047 7.54687H6.07797C6.05741 7.54687 6.03728 7.54106 6.01986 7.53013C6.00245 7.5192 5.98848 7.50359 5.97953 7.48508L5.77172 7.05523C5.72122 6.95029 5.64735 6.85831 5.55577 6.78636C5.4642 6.71441 5.35735 6.66439 5.24344 6.64016L4.65774 6.51437L5.1625 5.63281C5.17214 5.61612 5.18601 5.60227 5.20272 5.59267C5.21943 5.58307 5.23839 5.57805 5.25766 5.57812H6.17149C6.30085 5.5782 6.4281 5.54526 6.54117 5.48242L7.2111 5.11328C7.26248 5.08436 7.31052 5.04988 7.35438 5.01047L8.82602 3.67992C8.95509 3.56409 9.04078 3.40768 9.06892 3.23655C9.09706 3.06542 9.06597 2.88981 8.98078 2.73875L8.80469 2.41992C9.72329 2.78324 10.5116 3.41411 11.0674 4.23075C11.6232 5.04739 11.9209 6.01216 11.9219 7ZM7.90781 2.16234L8.40821 3.05867C8.42026 3.08032 8.4246 3.10542 8.42053 3.12986C8.41646 3.1543 8.40421 3.17663 8.38578 3.1932L6.91414 4.52375C6.90804 4.5295 6.90124 4.53446 6.89391 4.53852L6.22399 4.9082C6.20726 4.91746 6.18841 4.92217 6.1693 4.92187H5.25766C5.12312 4.92172 4.99091 4.95703 4.87436 5.02423C4.75781 5.09144 4.66102 5.18817 4.59375 5.30469L4.00203 6.33883C3.99794 6.33281 3.99446 6.3264 3.99164 6.31969L3.36328 4.64242C3.35293 4.61644 3.35293 4.58747 3.36328 4.56148L3.97469 3.12047C4.5247 2.69072 5.1599 2.38301 5.83806 2.21781C6.51622 2.05261 7.22178 2.0337 7.90781 2.16234ZM2.07813 7C2.07729 6.16199 2.29157 5.3378 2.70047 4.60633C2.70057 4.69731 2.71706 4.78752 2.74914 4.87266L3.3775 6.54992C3.4222 6.67026 3.49656 6.77737 3.59369 6.86131C3.69082 6.94525 3.80758 7.0033 3.93313 7.03008L5.10563 7.28164C5.12192 7.28517 5.13719 7.29237 5.15026 7.30271C5.16334 7.31304 5.17389 7.32622 5.1811 7.34125L5.38891 7.77109C5.45194 7.90028 5.54991 8.00923 5.67169 8.08559C5.79348 8.16195 5.93423 8.20266 6.07797 8.20312H6.32735L5.86305 9.24219C5.80213 9.37898 5.78266 9.53064 5.80706 9.67839C5.83146 9.82614 5.89865 9.96349 6.00031 10.0734L6.00578 10.0795L7.08203 11.1874C7.09304 11.2 7.10103 11.2149 7.10539 11.231C7.10976 11.2471 7.11037 11.264 7.10719 11.2804L6.9836 11.9219C5.68152 11.9161 4.43467 11.3952 3.5155 10.4729C2.59632 9.55067 2.07956 8.30208 2.07813 7ZM7.66063 11.8776L7.75196 11.4073C7.77441 11.2893 7.76894 11.1677 7.73599 11.0522C7.70304 10.9368 7.64352 10.8306 7.56219 10.7423L7.55672 10.7362L6.48047 9.62828C6.46655 9.61256 6.45744 9.59317 6.45424 9.57242C6.45104 9.55167 6.45388 9.53043 6.46242 9.51125L7.21164 7.8307C7.22116 7.80852 7.23774 7.79011 7.25881 7.77834C7.27988 7.76657 7.30425 7.7621 7.32813 7.76562L8.5761 7.93406C8.59119 7.93596 8.60571 7.94099 8.61875 7.94883L11.2109 9.5457C10.8303 10.1744 10.314 10.71 9.6997 11.1135C9.08543 11.5169 8.38876 11.778 7.66063 11.8776Z" fill="white" stroke="white" stroke-width="0.2"/>
</svg>
