<svg
      width="23"
      height="22"
      viewBox="0 0 23 22"
      fill="none"
      xmlns="http://www.w3.org/2000/svg"
    >
      <path
        d="M11.0423 19.9375C5.86315 19.9375 1.64648 15.7208 1.64648 10.5417C1.64648 5.36251 5.86315 1.14584 11.0423 1.14584C16.2215 1.14584 20.4382 5.36251 20.4382 10.5417C20.4382 15.7208 16.2215 19.9375 11.0423 19.9375ZM11.0423 2.52084C6.61482 2.52084 3.02148 6.12334 3.02148 10.5417C3.02148 14.96 6.61482 18.5625 11.0423 18.5625C15.4698 18.5625 19.0632 14.96 19.0632 10.5417C19.0632 6.12334 15.4698 2.52084 11.0423 2.52084Z"
        fill="gray"
      />
      <path
        d="M20.667 20.8542C20.4928 20.8542 20.3186 20.79 20.1811 20.6525L18.3478 18.8192C18.082 18.5533 18.082 18.1133 18.3478 17.8475C18.6136 17.5817 19.0536 17.5817 19.3195 17.8475L21.1528 19.6808C21.4186 19.9467 21.4186 20.3867 21.1528 20.6525C21.0153 20.79 20.8411 20.8542 20.667 20.8542Z"
        fill="gray"
      />
    </svg>