<svg width="20" height="20" viewBox="0 0 20 20" fill="none" xmlns="http://www.w3.org/2000/svg">
<path fill-rule="evenodd" clip-rule="evenodd" d="M16.7637 6.89053L16.3099 6.10325C16.1253 5.78416 15.8217 5.55129 15.4656 5.45573C15.1095 5.36016 14.7301 5.40968 14.4105 5.59344C14.2535 5.68637 14.0796 5.74735 13.8989 5.77282C13.7183 5.7983 13.5343 5.78778 13.3577 5.74188C13.1811 5.69599 13.0154 5.61562 12.8699 5.5054C12.7245 5.39518 12.6023 5.2573 12.5104 5.09967C12.3904 4.89797 12.326 4.66799 12.324 4.43327C12.3292 4.247 12.2971 4.06156 12.2294 3.88792C12.1618 3.71428 12.06 3.55596 11.9301 3.42233C11.8002 3.28871 11.6449 3.18249 11.4732 3.10995C11.3016 3.03741 11.1171 3.00002 10.9307 3H10.0167C9.83421 3 9.6535 3.03609 9.485 3.10622C9.31649 3.17635 9.16352 3.27912 9.0349 3.40862C8.90628 3.53812 8.80455 3.69178 8.73556 3.86076C8.66658 4.02974 8.63172 4.21071 8.63297 4.39322C8.62762 4.75925 8.4785 5.10849 8.21781 5.36549C7.95713 5.62249 7.60581 5.76662 7.23975 5.76678C7.00478 5.76419 6.77464 5.69963 6.57262 5.57961C6.25302 5.39585 5.87359 5.34631 5.51754 5.44188C5.16148 5.53745 4.85785 5.77031 4.67322 6.08941L4.18599 6.89053C4.00223 7.21013 3.95271 7.58956 4.04828 7.94562C4.14385 8.30167 4.37671 8.6053 4.69581 8.78993C4.9077 8.91218 5.08367 9.08808 5.20602 9.29992C5.32837 9.51176 5.39278 9.75209 5.39278 9.99672C5.39278 10.2414 5.32837 10.4817 5.20602 10.6935C5.08367 10.9054 4.9077 11.0812 4.69581 11.2035C4.53772 11.2941 4.39907 11.415 4.28783 11.5593C4.17659 11.7036 4.09496 11.8684 4.04759 12.0444C4.00022 12.2203 3.98805 12.4039 4.01181 12.5845C4.03556 12.7652 4.09475 12.9394 4.18599 13.0971L4.64629 13.8909C4.73535 14.0514 4.85521 14.1927 4.99901 14.3067C5.14281 14.4207 5.30772 14.5052 5.48426 14.5554C5.66081 14.6055 5.8455 14.6203 6.02777 14.5989C6.21004 14.5775 6.3863 14.5203 6.54641 14.4306C6.70397 14.3387 6.87817 14.2791 7.05894 14.255C7.23971 14.2309 7.42346 14.243 7.59956 14.2904C7.77566 14.3378 7.94061 14.4197 8.08486 14.5312C8.22911 14.6428 8.3498 14.7819 8.43996 14.9404C8.55999 15.1421 8.62433 15.3721 8.62641 15.6068C8.62661 15.9762 8.77346 16.3305 9.0347 16.5917C9.29594 16.853 9.65019 16.9998 10.0196 17H10.9322C11.3 16.9998 11.6528 16.8543 11.9138 16.5951C12.1748 16.3359 12.3227 15.984 12.3254 15.6162C12.3242 15.4329 12.3593 15.2512 12.4289 15.0816C12.4985 14.912 12.601 14.7579 12.7307 14.6283C12.8603 14.4986 13.0144 14.3961 13.184 14.3265C13.3536 14.2569 13.5353 14.2217 13.7187 14.223C13.9527 14.2296 14.1815 14.2936 14.385 14.4095C14.7048 14.5931 15.0843 14.6425 15.4404 14.5469C15.7965 14.4514 16.1003 14.2186 16.2852 13.8996L16.7651 13.0985C16.8573 12.9406 16.9172 12.7659 16.9414 12.5846C16.9657 12.4034 16.9537 12.2191 16.9063 12.0425C16.8589 11.8659 16.777 11.7004 16.6652 11.5556C16.5535 11.4109 16.4142 11.2897 16.2553 11.1991C16.0963 11.1086 15.9569 10.9873 15.8451 10.8425C15.7333 10.6977 15.6513 10.5322 15.6039 10.3554C15.5565 10.1787 15.5446 9.99438 15.5689 9.81305C15.5932 9.63171 15.6532 9.457 15.7455 9.29901C15.8667 9.08647 16.0428 8.91039 16.2553 8.78919C16.5727 8.60446 16.8043 8.3019 16.8998 7.9473C16.9952 7.5927 16.9468 7.21476 16.7651 6.89565L16.7637 6.89053Z" stroke="#E8A705" stroke-linecap="round" stroke-linejoin="round"/>
<path d="M10.4764 11.9207C11.5367 11.9207 12.3962 11.0612 12.3962 10.0009C12.3962 8.94066 11.5367 8.08115 10.4764 8.08115C9.41616 8.08115 8.55664 8.94066 8.55664 10.0009C8.55664 11.0612 9.41616 11.9207 10.4764 11.9207Z" stroke="#E8A705" stroke-linecap="round" stroke-linejoin="round"/>
</svg>
