<svg width="20" height="20" viewBox="0 0 20 20" fill="none" xmlns="http://www.w3.org/2000/svg">
<path d="M10.3917 14.6887C10.1505 14.5452 9.848 14.5453 9.60677 14.6888L5.90695 16.8898C5.33349 17.231 4.62456 16.7262 4.77694 16.0852L5.75782 11.9594C5.82154 11.6913 5.72915 11.4107 5.51768 11.2299L2.26101 8.44628C1.75656 8.0151 2.02774 7.20066 2.69427 7.14511L6.98608 6.78739C7.26556 6.7641 7.50903 6.59109 7.61884 6.33777L9.30316 2.45229C9.56458 1.84924 10.4354 1.84924 10.6968 2.45229L12.3812 6.33777C12.491 6.59109 12.7344 6.7641 13.0139 6.78739L17.3057 7.14511C17.9723 7.20066 18.2434 8.0151 17.739 8.44628L14.4823 11.2299C14.2709 11.4107 14.1785 11.6913 14.2422 11.9594L15.2231 16.0855C15.3755 16.7265 14.6667 17.2312 14.0932 16.8901L10.3917 14.6887Z" fill="#E8A705"/>
</svg>
