<svg width="47" height="46" viewBox="0 0 47 46" fill="none" xmlns="http://www.w3.org/2000/svg">
<g clip-path="url(#clip0_278_855)">
<path d="M33.881 0H13.1188C6.1782 0 0.551758 5.62644 0.551758 12.567V33.3293C0.551758 40.2698 6.1782 45.8963 13.1188 45.8963H33.881C40.8216 45.8963 46.448 40.2698 46.448 33.3293V12.567C46.448 5.62644 40.8216 0 33.881 0Z" fill="url(#paint0_radial_278_855)"/>
<path d="M21.6106 23.8369C20.9987 23.8215 20.3866 23.8562 19.7803 23.9407C18.9008 24.1386 18.1294 24.6638 17.623 25.4097C17.1166 26.1556 16.913 27.0662 17.0535 27.9568C17.186 28.8565 17.6553 29.6724 18.3666 30.2391C19.0778 30.8059 19.9778 31.0813 20.8844 31.0096C21.7776 30.948 22.6145 30.551 23.2274 29.8983C23.8403 29.2455 24.1838 28.3853 24.1892 27.49C24.1892 22.0364 24.1892 16.5902 24.1892 11.1366V10.5586H28.435C28.7017 14.1672 30.8209 16.0048 34.2887 16.4864V20.6433C32.2123 20.6175 30.1933 19.9583 28.5017 18.7538C28.5017 18.9465 28.5017 19.0873 28.5017 19.2281C28.5017 21.903 28.5017 24.5705 28.5017 27.238C28.5574 28.8922 28.0827 30.5209 27.1468 31.886C26.2109 33.2512 24.863 34.2812 23.3 34.8257C21.8785 35.4075 20.3113 35.5332 18.8153 35.1854C17.3192 34.8376 15.9682 34.0335 14.9492 32.8843C13.8565 31.8273 13.1155 30.4597 12.8265 28.9672C12.5375 27.4746 12.7146 25.9293 13.3338 24.5409C13.9617 22.9396 15.1016 21.591 16.5759 20.7051C18.0501 19.8192 19.776 19.4458 21.4846 19.643L21.6402 19.68L21.6106 23.8369Z" fill="url(#paint1_linear_278_855)"/>
</g>
<defs>
<radialGradient id="paint0_radial_278_855" cx="0" cy="0" r="1" gradientUnits="userSpaceOnUse" gradientTransform="translate(26.3601 -20.577) scale(40.5093)">
<stop stop-color="#1F1F1F"/>
<stop offset="0.44" stop-color="#232222"/>
<stop offset="0.82" stop-color="#2D2B2B"/>
<stop offset="1" stop-color="#353132"/>
</radialGradient>
<linearGradient id="paint1_linear_278_855" x1="23.5001" y1="35.3369" x2="23.5001" y2="10.5586" gradientUnits="userSpaceOnUse">
<stop stop-color="#D1D3D4"/>
<stop offset="0.15" stop-color="#DEE0E1"/>
<stop offset="0.41" stop-color="#F1F1F2"/>
<stop offset="0.69" stop-color="#FBFCFC"/>
<stop offset="1" stop-color="white"/>
</linearGradient>
<clipPath id="clip0_278_855">
<rect width="45.8963" height="46" fill="white" transform="translate(0.551758)"/>
</clipPath>
</defs>
</svg>
