<svg width="20" height="21" viewBox="0 0 20 21" fill="none" xmlns="http://www.w3.org/2000/svg">
<path d="M17.3525 12.5356C17.1541 12.3686 16.9231 12.2538 16.6776 12.2003C16.4321 12.1469 16.1786 12.156 15.9368 12.2271L13.148 12.9286C13.2128 12.6287 13.2148 12.3167 13.1538 12.0159C13.0928 11.7151 12.9703 11.4333 12.7956 11.1917C12.6208 10.95 12.3984 10.7547 12.1448 10.6205C11.8913 10.4863 11.6133 10.4166 11.3316 10.4166H7.9949C7.71469 10.4158 7.43711 10.4758 7.17821 10.5931C6.9193 10.7104 6.68421 10.8826 6.48651 11.0998L4.97879 12.7499H3.06647C2.78363 12.7499 2.51236 12.8729 2.31236 13.0916C2.11236 13.3104 2 13.6072 2 13.9166V16.8333C2 17.1427 2.11236 17.4394 2.31236 17.6582C2.51236 17.877 2.78363 17.9999 3.06647 17.9999H9.99853C10.0421 18 10.0856 17.9941 10.1278 17.9824L14.3937 16.8158C14.4209 16.8087 14.4475 16.7989 14.473 16.7866L17.0639 15.5806L17.0932 15.566C17.3422 15.4299 17.5555 15.2267 17.7128 14.9755C17.8702 14.7243 17.9665 14.4334 17.9927 14.1303C18.0189 13.8271 17.9741 13.5217 17.8626 13.2427C17.7511 12.9637 17.5764 12.7203 17.3552 12.5356H17.3525ZM3.06647 13.9166H4.66618V16.8333H3.06647V13.9166ZM16.626 14.5153L14.0931 15.695L9.93188 16.8333H5.73265V13.5746L7.24104 11.9253C7.33971 11.8164 7.45717 11.7302 7.58659 11.6715C7.716 11.6128 7.8548 11.5828 7.9949 11.5833H11.3316C11.5438 11.5833 11.7472 11.6755 11.8972 11.8396C12.0472 12.0036 12.1315 12.2262 12.1315 12.4583C12.1315 12.6903 12.0472 12.9129 11.8972 13.077C11.7472 13.2411 11.5438 13.3333 11.3316 13.3333H9.4653C9.32388 13.3333 9.18825 13.3947 9.08824 13.5041C8.98824 13.6135 8.93206 13.7619 8.93206 13.9166C8.93206 14.0713 8.98824 14.2197 9.08824 14.3291C9.18825 14.4385 9.32388 14.4999 9.4653 14.4999H11.5982C11.6384 14.4998 11.6784 14.4949 11.7176 14.4854L16.1834 13.3617L16.2041 13.3559C16.3404 13.3145 16.4859 13.3297 16.6126 13.3986C16.7393 13.4675 16.8382 13.5852 16.8903 13.7291C16.9424 13.873 16.9441 14.0329 16.8949 14.178C16.8457 14.3232 16.7492 14.4433 16.624 14.5153H16.626ZM12.9313 9.24994C13.0631 9.2501 13.1946 9.2384 13.3246 9.21494C13.4708 9.69002 13.7383 10.1094 14.0955 10.4234C14.4526 10.7375 14.8845 10.9331 15.3401 10.9871C15.7957 11.0411 16.2558 10.9513 16.6662 10.7283C17.0766 10.5053 17.4201 10.1584 17.6559 9.72864C17.8918 9.29887 18.0103 8.8042 17.9973 8.30312C17.9844 7.80203 17.8405 7.31548 17.5828 6.901C17.3251 6.48651 16.9642 6.16142 16.543 5.96416C16.1217 5.76691 15.6576 5.70572 15.2056 5.78786C15.0648 5.33012 14.8113 4.92374 14.473 4.61344C14.1347 4.30315 13.7247 4.10096 13.2882 4.02913C12.8516 3.95731 12.4054 4.01863 11.9986 4.20634C11.5919 4.39406 11.2403 4.70089 10.9827 5.09308C10.7251 5.48527 10.5713 5.94761 10.5384 6.42921C10.5055 6.91082 10.5947 7.39303 10.7961 7.82277C10.9976 8.25251 11.3035 8.61312 11.6802 8.86492C12.0569 9.11672 12.4899 9.24995 12.9313 9.24994ZM16.9306 8.37494C16.9306 8.66337 16.8524 8.94532 16.7059 9.18515C16.5594 9.42497 16.3512 9.61189 16.1077 9.72226C15.8641 9.83264 15.596 9.86152 15.3374 9.80525C15.0788 9.74898 14.8413 9.61009 14.6549 9.40614C14.4684 9.20219 14.3415 8.94234 14.29 8.65945C14.2386 8.37656 14.265 8.08334 14.3659 7.81686C14.4668 7.55038 14.6377 7.32262 14.8569 7.16238C15.0761 7.00214 15.3338 6.91661 15.5975 6.91661C15.9511 6.91661 16.2901 7.07025 16.5401 7.34374C16.7901 7.61723 16.9306 7.98817 16.9306 8.37494ZM12.9313 5.16661C13.2221 5.16677 13.5049 5.27095 13.7366 5.46329C13.9682 5.65562 14.1361 5.92555 14.2144 6.23192C13.9413 6.44213 13.7113 6.71239 13.5392 7.02541C13.367 7.33843 13.2565 7.68731 13.2146 8.04973C13.1215 8.07172 13.0266 8.08297 12.9313 8.08327C12.5778 8.08327 12.2387 7.92963 11.9887 7.65614C11.7387 7.38265 11.5982 7.01171 11.5982 6.62494C11.5982 6.23817 11.7387 5.86723 11.9887 5.59374C12.2387 5.32025 12.5778 5.16661 12.9313 5.16661Z" fill="#E8A705"/>
</svg>
