<svg width="64" height="58" viewBox="0 0 64 58" fill="none" xmlns="http://www.w3.org/2000/svg">
<path fill-rule="evenodd" clip-rule="evenodd" d="M52.7956 2.63636H18.8158C17.6833 2.63636 16.7653 3.55441 16.7653 4.68687V20.197C16.718 20.1823 16.6691 20.1869 16.6184 20.2122C15.5912 20.7258 14.564 21.6146 14.1289 22.1878V4.68687C14.1289 2.09838 16.2273 0 18.8158 0H52.7956C55.3841 0 57.4824 2.09838 57.4824 4.68687V34.3363C56.7014 34.8312 55.7422 34.9802 54.8461 34.7426V4.68687C54.8461 3.55441 53.928 2.63636 52.7956 2.63636ZM14.1289 35.907V50.3838C14.1289 52.9723 16.2273 55.0707 18.8158 55.0707H43.6472C43.1353 54.3196 42.836 53.4119 42.836 52.4343H18.8158C17.6833 52.4343 16.7653 51.5163 16.7653 50.3838L16.7653 37.9343C16.6288 37.8253 16.4171 37.6786 16.1638 37.5031C15.5707 37.0921 14.7492 36.5229 14.1289 35.907Z" fill="white"/>
<path d="M56.0454 40.3126C56.4653 39.8927 57.4392 39.7119 57.859 40.1317C58.2789 40.5517 58.2789 41.4136 57.859 41.8334L49.7826 49.9101C49.3626 50.33 48.6816 50.33 48.2618 49.9101L44.2234 45.8718C43.8036 45.4519 43.7375 44.5061 44.1574 44.0863C44.5774 43.6663 45.3244 43.6381 45.7443 44.0581L49.0222 47.336L56.0454 40.3126ZM51.0412 32.2227C54.5998 32.2227 57.8224 33.6655 60.1548 35.998C62.4872 38.3303 63.9301 41.553 63.9301 45.1115C63.9301 48.6706 62.4874 51.8927 60.1548 54.2251C57.8224 56.5576 54.5998 58.0004 51.0412 58.0004C47.4822 58.0004 44.2599 56.5577 41.9277 54.2251C39.5949 51.8927 38.1523 48.6706 38.1523 45.1115C38.1523 41.553 39.5952 38.3303 41.9277 35.998C44.2599 33.6652 47.4822 32.2227 51.0412 32.2227ZM58.3412 37.5187C56.3982 35.5758 54.0065 34.6669 51.0412 34.6669C48.0757 34.6669 45.684 35.5758 43.7413 37.5187C41.7984 39.4615 40.5965 42.1463 40.5965 45.1115C40.5965 48.0771 41.5055 50.4688 43.4484 52.4115C45.3911 54.3544 48.0757 55.5561 51.0412 55.5561C54.0065 55.5561 56.3982 54.6473 58.3412 52.7044C60.284 50.7617 61.4858 48.0771 61.4858 45.1115C61.4858 42.1463 60.284 39.4615 58.3412 37.5187Z" fill="white"/>
<path d="M3.27715 50.1212L3.2783 50.1212C3.66123 50.122 4.04052 50.047 4.39438 49.9007C4.74824 49.7543 5.06967 49.5395 5.3402 49.2685L5.34038 49.2683L11.3933 43.2154C11.3933 43.2154 11.3933 43.2154 11.3933 43.2154C12.5304 42.0779 12.5304 40.2271 11.3933 39.09L11.3927 39.0894C11.1227 38.8178 10.8014 38.6025 10.4476 38.4559C10.0938 38.3093 9.7144 38.2343 9.33141 38.2353L9.32987 38.2353C8.94694 38.2343 8.56761 38.3093 8.21384 38.4559C7.86008 38.6025 7.53891 38.8179 7.26893 39.0894L7.26832 39.09L1.21542 45.1429L1.21539 45.143C0.078331 46.2797 0.0782461 48.1308 1.21545 49.2683L1.21562 49.2685C1.48608 49.5395 1.80746 49.7543 2.16125 49.9007C2.51505 50.047 2.89428 50.122 3.27715 50.1212ZM10.7989 39.6852C11.1875 40.0748 11.4058 40.6026 11.4058 41.1529C11.4058 41.7032 11.1875 42.2311 10.7988 42.6207L10.7986 42.621L4.74566 48.6739L4.74541 48.6741C4.35578 49.0628 3.8279 49.2811 3.27755 49.2811C2.7272 49.2811 2.19931 49.0628 1.80969 48.6741L1.80919 48.6736C1.4205 48.284 1.20222 47.7561 1.20222 47.2058C1.20222 46.6554 1.4205 46.1276 1.80919 45.7379L1.80944 45.7377L7.86169 39.6854C7.8618 39.6853 7.86192 39.6852 7.86204 39.6851C8.05442 39.4916 8.28327 39.3381 8.53535 39.2337C8.78734 39.1292 9.05752 39.0758 9.33029 39.0765L10.7989 39.6852Z" fill="white" stroke="white" stroke-width="0.585859"/>
<path d="M11.8554 41.0694L11.8558 41.0694C11.9108 41.0694 11.9654 41.0586 12.0162 41.0375C12.0671 41.0165 12.1133 40.9855 12.1522 40.9465L12.1525 40.9461L14.9267 38.172L14.9266 38.172L14.9303 38.1685C14.9704 38.1297 15.0025 38.0833 15.0245 38.032C15.0465 37.9807 15.0581 37.9256 15.0586 37.8697C15.0591 37.8139 15.0485 37.7586 15.0273 37.7069C15.0062 37.6552 14.975 37.6083 14.9355 37.5688C14.896 37.5293 14.8491 37.4981 14.7974 37.477C14.7458 37.4559 14.6904 37.4452 14.6346 37.4457C14.5788 37.4462 14.5236 37.4578 14.4723 37.4798C14.421 37.5018 14.3746 37.5339 14.3359 37.574L14.3359 37.5741L14.3323 37.5777L11.5582 40.3517C11.5582 40.3518 11.5582 40.3518 11.5582 40.3518C11.4994 40.4106 11.4594 40.4854 11.4432 40.567C11.427 40.6485 11.4353 40.733 11.4671 40.8098C11.4989 40.8866 11.5528 40.9523 11.6219 40.9985C11.691 41.0447 11.7723 41.0693 11.8554 41.0694ZM9.83743 39.0514L9.83779 39.0514C9.89285 39.0514 9.94739 39.0406 9.99825 39.0196C10.0491 38.9985 10.0953 38.9675 10.1342 38.9285L10.1346 38.9282L12.9087 36.154L12.9086 36.154L12.9123 36.1505C12.9525 36.1117 12.9845 36.0653 13.0065 36.014C13.0285 35.9627 13.0401 35.9076 13.0406 35.8517C13.0411 35.7959 13.0305 35.7406 13.0093 35.6889C12.9882 35.6372 12.957 35.5903 12.9175 35.5508C12.878 35.5114 12.8311 35.4801 12.7794 35.459C12.7278 35.4379 12.6724 35.4272 12.6166 35.4277C12.5608 35.4282 12.5056 35.4398 12.4543 35.4618C12.403 35.4839 12.3566 35.5159 12.3179 35.556L12.3179 35.5561L12.3143 35.5597L9.54021 38.3338C9.48144 38.3925 9.44141 38.4674 9.4252 38.549C9.40899 38.6305 9.41731 38.715 9.44912 38.7918C9.48093 38.8686 9.5348 38.9343 9.60392 38.9805C9.67304 39.0267 9.7543 39.0513 9.83743 39.0514Z" fill="white" stroke="white" stroke-width="0.585859"/>
<path fill-rule="evenodd" clip-rule="evenodd" d="M26.1406 8.78793C26.1406 8.14081 26.6652 7.61621 27.3123 7.61621H41.6659C42.313 7.61621 42.8376 8.14081 42.8376 8.78793C42.8376 9.43505 42.313 9.95965 41.6659 9.95965H27.3123C26.6652 9.95965 26.1406 9.43505 26.1406 8.78793Z" fill="white"/>
<path fill-rule="evenodd" clip-rule="evenodd" d="M34.9297 18.4549C34.9297 17.8078 35.4543 17.2832 36.1014 17.2832H50.4549C51.1021 17.2832 51.6267 17.8078 51.6267 18.4549C51.6267 19.102 51.1021 19.6266 50.4549 19.6266H36.1014C35.4543 19.6266 34.9297 19.102 34.9297 18.4549Z" fill="white"/>
<path fill-rule="evenodd" clip-rule="evenodd" d="M38.1523 26.3641C38.1523 25.717 38.6769 25.1924 39.3241 25.1924L50.4554 25.1924C51.1025 25.1924 51.6271 25.717 51.6271 26.3641C51.6271 27.0112 51.1025 27.5358 50.4554 27.5358L39.3241 27.5358C38.6769 27.5358 38.1523 27.0112 38.1523 26.3641Z" fill="white"/>
<path fill-rule="evenodd" clip-rule="evenodd" d="M22.332 46.869C22.332 46.2219 22.8566 45.6973 23.5037 45.6973L34.6351 45.6973C35.2822 45.6973 35.8068 46.2219 35.8068 46.869C35.8068 47.5161 35.2822 48.0407 34.6351 48.0407L23.5037 48.0407C22.8566 48.0407 22.332 47.5161 22.332 46.869Z" fill="white"/>
<path d="M21.4554 17.2832C24.6905 17.2832 27.6201 18.5949 29.7405 20.7153C31.8609 22.8356 33.1726 25.7653 33.1726 29.0003C33.1726 32.2358 31.861 35.1651 29.7405 37.2854C27.6201 39.4058 24.6905 40.7175 21.4554 40.7175C18.22 40.7175 15.2906 39.406 13.1704 37.2854C11.0497 35.1651 9.73828 32.2358 9.73828 29.0003C9.73828 25.7653 11.05 22.8356 13.1704 20.7153C15.2906 18.5946 18.22 17.2832 21.4554 17.2832ZM28.0918 22.0978C26.3254 20.3315 24.1511 19.5052 21.4554 19.5052C18.7595 19.5052 16.5853 20.3315 14.8191 22.0978C13.0529 23.864 11.9603 26.3047 11.9603 29.0003C11.9603 31.6963 12.7866 33.8706 14.5528 35.6367C16.319 37.4029 18.7595 38.4954 21.4554 38.4954C24.1511 38.4954 26.3254 37.6692 28.0918 35.903C29.858 34.1369 30.9505 31.6963 30.9505 29.0003C30.9505 26.3047 29.858 23.864 28.0918 22.0978Z" fill="white"/>
<path d="M21.456 21.3838C23.5588 21.3838 25.463 22.2364 26.8413 23.6147C28.2196 24.9928 29.0722 26.8972 29.0722 28.9999C29.0722 31.103 28.2196 33.007 26.8413 34.3852C25.463 35.7635 23.5588 36.6161 21.456 36.6161C19.353 36.6161 17.4489 35.7636 16.0707 34.3852C14.6923 33.007 13.8398 31.103 13.8398 28.9999C13.8398 26.8972 14.6925 24.9928 16.0707 23.6147C17.4489 22.2362 19.353 21.3838 21.456 21.3838ZM25.7696 24.5133C24.6215 23.3652 23.2082 22.8281 21.456 22.8281C19.7036 22.8281 18.2904 23.3652 17.1424 24.5133C15.9943 25.6613 15.2841 27.2478 15.2841 28.9999C15.2841 30.7523 15.8212 32.1656 16.9693 33.3136C18.1173 34.4616 19.7036 35.1717 21.456 35.1717C23.2082 35.1717 24.6215 34.6347 25.7696 33.4866C26.9177 32.3387 27.6278 30.7523 27.6278 28.9999C27.6278 27.2478 26.9177 25.6613 25.7696 24.5133Z" fill="white"/>
</svg>
