<svg width="17" height="15" viewBox="0 0 17 15" fill="none" xmlns="http://www.w3.org/2000/svg">
<path fill-rule="evenodd" clip-rule="evenodd" d="M8.52992 0.5C8.52992 0.223858 8.30606 0 8.02992 0C7.75378 0 7.52992 0.223858 7.52992 0.5V2.56772C6.61881 2.6201 5.75041 2.81422 4.94937 3.10848L4.10374 1.92854C3.94288 1.70409 3.63053 1.65254 3.40607 1.8134C3.18162 1.97426 3.13007 2.28661 3.29093 2.51107L4.00922 3.51333C3.41797 3.80695 2.87579 4.15339 2.39512 4.53162C0.983159 5.64266 0 7.11531 0 8.42916C0 9.74301 0.983159 11.2157 2.39512 12.3267C3.83279 13.458 5.82077 14.3049 8.02598 14.3049C10.2311 14.3049 12.2191 13.4586 13.6568 12.3276C15.0689 11.2167 16.052 9.74407 16.052 8.42916C16.052 7.11425 15.0689 5.64159 13.6568 4.53075C13.2739 4.22955 12.8521 3.94856 12.3974 3.69836L13.1197 2.69061C13.2805 2.46616 13.229 2.1538 13.0045 1.99294C12.7801 1.83208 12.4677 1.88363 12.3069 2.10808L11.4832 3.25741C10.5816 2.88094 9.5844 2.62971 8.52992 2.56817V0.5ZM3.01351 5.31749C1.70159 6.34981 1 7.56501 1 8.42916C1 9.29331 1.70159 10.5085 3.01351 11.5408C4.2997 12.5529 6.07472 13.3049 8.02598 13.3049C9.97736 13.3049 11.7524 12.5534 13.0385 11.5416C14.3503 10.5097 15.052 9.29448 15.052 8.42916C15.052 7.56384 14.3503 6.34864 13.0385 5.3167C11.7524 4.30493 9.97736 3.55346 8.02598 3.55346C6.07472 3.55346 4.2997 4.30542 3.01351 5.31749ZM5.10692 8.56355C5.10692 6.95144 6.41387 5.64449 8.02598 5.64449C9.63809 5.64449 10.945 6.95144 10.945 8.56355C10.945 10.1757 9.63809 11.4826 8.02598 11.4826C6.41387 11.4826 5.10692 10.1757 5.10692 8.56355ZM8.02598 6.64449C6.96615 6.64449 6.10692 7.50372 6.10692 8.56355C6.10692 9.62338 6.96615 10.4826 8.02598 10.4826C9.08581 10.4826 9.94505 9.62338 9.94505 8.56355C9.94505 7.50372 9.08581 6.64449 8.02598 6.64449Z" fill="white"/>
</svg>
