<svg width="70" height="51" viewBox="0 0 70 51" fill="none" xmlns="http://www.w3.org/2000/svg">
<path d="M52.6645 36.3201C52.3377 36.6465 51.8947 36.8298 51.4329 36.8298C50.971 36.8298 50.5281 36.6465 50.2013 36.3201L43.8807 30.0024V49.0311C43.8807 49.4933 43.6971 49.9366 43.3703 50.2634C43.0434 50.5903 42.6001 50.7739 42.1379 50.7739C41.6757 50.7739 41.2324 50.5903 40.9055 50.2634C40.5787 49.9366 40.3951 49.4933 40.3951 49.0311V30.0024L34.0745 36.3201C33.7441 36.628 33.3071 36.7956 32.8556 36.7876C32.4041 36.7797 31.9733 36.5967 31.654 36.2774C31.3347 35.9581 31.1518 35.5273 31.1438 35.0758C31.1359 34.6243 31.3035 34.1873 31.6113 33.857L40.9063 24.562C41.2331 24.2356 41.676 24.0523 42.1379 24.0523C42.5997 24.0523 43.0427 24.2356 43.3695 24.562L52.6645 33.857C52.9909 34.1837 53.1742 34.6267 53.1742 35.0886C53.1742 35.5504 52.9909 35.9934 52.6645 36.3201ZM44.4616 0.81324C39.7499 0.817041 35.1351 2.15179 31.1488 4.66373C27.1624 7.17566 23.9668 10.7626 21.93 15.0114C19.4728 14.5929 16.9554 14.6891 14.5373 15.2938C12.1192 15.8985 9.85291 16.9987 7.88195 18.5245C5.91098 20.0504 4.27823 21.9689 3.08704 24.1584C1.89584 26.3479 1.17214 28.7609 0.961738 31.2446C0.751333 33.7283 1.05881 36.2287 1.8647 38.5874C2.67059 40.9461 3.95735 43.1119 5.64355 44.9476C7.32974 46.7833 9.37864 48.249 11.6606 49.2519C13.9425 50.2547 16.4078 50.773 18.9004 50.7739H30.5191C30.9814 50.7739 31.4247 50.5903 31.7515 50.2634C32.0783 49.9366 32.262 49.4933 32.262 49.0311C32.262 48.5688 32.0783 48.1255 31.7515 47.7987C31.4247 47.4719 30.9814 47.2882 30.5191 47.2882H18.9004C15.0485 47.2882 11.3544 45.7581 8.63077 43.0344C5.9071 40.3108 4.37696 36.6167 4.37696 32.7648C4.37696 28.9129 5.9071 25.2189 8.63077 22.4952C11.3544 19.7715 15.0485 18.2414 18.9004 18.2414C19.4742 18.2427 20.0474 18.2777 20.6171 18.3459C19.8621 20.7563 19.4792 23.2677 19.4813 25.7936C19.4813 26.2558 19.665 26.6991 19.9918 27.0259C20.3186 27.3528 20.7619 27.5364 21.2241 27.5364C21.6864 27.5364 22.1297 27.3528 22.4565 27.0259C22.7833 26.6991 22.967 26.2558 22.967 25.7936C22.9684 21.9186 24.0173 18.1161 26.0027 14.7885C27.9881 11.4608 30.8361 8.73174 34.2454 6.89002C37.6547 5.0483 41.4984 4.16243 45.3699 4.32616C49.2413 4.48989 52.9966 5.69712 56.2382 7.82012C59.4798 9.94312 62.0872 12.9029 63.7845 16.3863C65.4818 19.8697 66.206 23.7472 65.8803 27.6084C65.5546 31.4696 64.1911 35.171 61.9342 38.3208C59.6773 41.4707 56.611 43.9519 53.0595 45.5019C52.6358 45.6867 52.3029 46.0324 52.134 46.4627C51.9652 46.8931 51.9742 47.3729 52.1591 47.7966C52.344 48.2203 52.6896 48.5532 53.1199 48.722C53.5503 48.8909 54.0301 48.8819 54.4538 48.697C59.7189 46.4046 64.0334 42.3681 66.671 37.2671C69.3085 32.1661 70.1081 26.3122 68.935 20.6907C67.762 15.0693 64.6879 10.0236 60.2304 6.4032C55.7729 2.78279 50.2042 0.808687 44.4616 0.81324Z" fill="#818181"/>
</svg>
