<svg width="20" height="22" viewBox="0 0 20 22" fill="none" xmlns="http://www.w3.org/2000/svg">
<path fill-rule="evenodd" clip-rule="evenodd" d="M12.0058 19.9586H1.01552C0.145669 19.8919 -0.0645312 19.2665 0.0157893 18.5436C0.492585 14.2849 5.26909 15.517 7.18824 13.7893C8.14525 16.6056 12.1459 16.7099 13.0431 13.7893C13.2499 13.9756 13.537 14.1328 13.8736 14.2712C13.5643 14.4592 13.2721 14.6865 13.0055 14.9531C11.652 16.3049 11.3188 18.2924 12.0058 19.9586ZM18.7988 15.6606C20.2036 17.0654 20.2036 19.3417 18.7988 20.7464C17.3941 22.1512 15.1177 22.1512 13.713 20.7464C12.3082 19.3417 12.3082 17.0654 13.713 15.6606C15.1177 14.2558 17.3958 14.2558 18.7988 15.6606ZM15.8885 16.2075H16.6233C16.7242 16.2075 16.8062 16.2895 16.8062 16.3903V17.6515H18.0674C18.1682 17.6515 18.2502 17.7335 18.2502 17.8344V18.5692C18.2502 18.6701 18.1682 18.7521 18.0674 18.7521H16.8062V20.0133C16.8062 20.1141 16.7242 20.1961 16.6233 20.1961H15.8885C15.7877 20.1961 15.7056 20.1141 15.7056 20.0133V18.7521H14.4444C14.3436 18.7521 14.2616 18.6701 14.2616 18.5692V17.8344C14.2616 17.7335 14.3436 17.6515 14.4444 17.6515H15.7056V16.3903C15.7056 16.2912 15.7877 16.2075 15.8885 16.2075ZM7.1626 10.9644C7.52661 11.5403 7.90599 12.1299 8.37766 12.564C8.83224 12.9793 9.38423 13.2612 10.1122 13.2629C10.9035 13.2647 11.4794 12.9724 11.9494 12.5332C12.4381 12.0769 12.8209 11.4515 13.202 10.826L14.2223 9.1461C14.412 8.71032 14.482 8.4215 14.4376 8.25061C14.4102 8.14978 14.2992 8.10022 14.1095 8.09168C14.0702 8.08997 14.0274 8.08997 13.9864 8.08997C13.942 8.09168 13.8941 8.09509 13.8429 8.09851C13.8138 8.10022 13.7899 8.09851 13.7643 8.09339C13.6754 8.09851 13.5797 8.09168 13.4857 8.07801L13.8343 6.53141C11.2419 6.93985 9.30391 5.01557 6.56618 6.1469L6.76442 7.96863C6.65675 7.97547 6.5508 7.97034 6.45339 7.95667C4.88116 8.00794 6.85328 10.4705 7.1626 10.9644ZM14.4615 7.62855C14.7127 7.70545 14.8734 7.86439 14.94 8.12244C15.0135 8.40783 14.9332 8.80943 14.6905 9.35971C14.6854 9.36997 14.682 9.38022 14.6751 9.38877L13.6446 11.0875C13.2464 11.742 12.8448 12.3999 12.3048 12.9024C11.7477 13.4253 11.059 13.7722 10.1191 13.7688C9.24239 13.7671 8.57932 13.4321 8.03758 12.9348C7.38305 12.3333 4.36506 8.55651 5.71342 7.64564C5.78006 7.60292 5.85355 7.56361 5.93216 7.53456C5.87235 6.75357 5.85184 5.76922 5.88944 4.94551C5.90994 4.75069 5.94754 4.55587 6.00052 4.35934C6.23123 3.53221 6.81227 2.86572 7.53002 2.40943C7.9265 2.15651 8.36057 1.96681 8.81173 1.84035C9.09884 1.75832 8.56736 0.83891 8.863 0.811567C10.2985 0.662889 12.6261 1.97536 13.6293 3.06225C14.13 3.60569 14.4478 4.32687 14.5162 5.28046L14.4615 7.62855Z" fill="#E8A705"/>
</svg>
