<svg width="20" height="20" viewBox="0 0 20 20" fill="none" xmlns="http://www.w3.org/2000/svg">
<path fill-rule="evenodd" clip-rule="evenodd" d="M8.86786 4.14394C9.20188 4.00705 9.55959 3.93729 9.92057 3.93864C10.6496 3.93864 11.3488 4.22823 11.8643 4.74373C12.3798 5.25922 12.6693 5.9584 12.6693 6.68742C12.6693 7.41645 12.3798 8.11562 11.8643 8.63112C11.3488 9.14662 10.6496 9.43621 9.92057 9.43621V9.94179L9.90004 9.43621C9.53907 9.43486 9.18187 9.36244 8.84889 9.22305C8.51591 9.08367 8.21362 8.88006 7.95933 8.62386C7.70503 8.36765 7.5037 8.06388 7.36681 7.72987C7.22991 7.39585 7.16013 7.03813 7.16148 6.67716C7.16283 6.31618 7.23529 5.95901 7.37467 5.62603C7.51406 5.29304 7.71765 4.99076 7.97385 4.73647C8.23005 4.48217 8.53385 4.28084 8.86786 4.14394ZM9.89788 10.4466H9.92057C10.9196 10.4436 11.8766 10.0443 12.5814 9.33629C13.2863 8.62827 13.6813 7.66947 13.6798 6.67044C13.6783 5.6714 13.2804 4.71381 12.5734 4.00791C11.8665 3.30202 10.9083 2.90555 9.90925 2.90555C8.91021 2.90555 7.95197 3.30202 7.24502 4.00791C6.53806 4.71381 6.14018 5.6714 6.13868 6.67044C6.13718 7.66947 6.53219 8.62827 7.23702 9.33629C7.94185 10.0443 8.89885 10.4436 9.89788 10.4466ZM5.37463 14.3822C5.37463 13.359 6.90411 12.8407 9.92127 12.8407C12.9377 12.8407 14.4665 13.3753 14.4665 14.3985C14.4665 15.4216 12.9384 15.94 9.92127 15.94C6.90411 15.94 5.37463 15.4054 5.37463 14.3822ZM9.92125 17H9.92127V16.9971C12.3281 16.9971 15.5286 16.7273 15.5286 14.3963C15.5286 11.7764 11.3085 11.7764 9.92129 11.7764H9.92127C7.51378 11.7764 4.3125 12.0434 4.3125 14.3801C4.3125 17 8.53409 17 9.92125 17Z" fill="#E8A705"/>
</svg>
