<svg width="15" height="14" viewBox="0 0 15 14" fill="none" xmlns="http://www.w3.org/2000/svg">
<path fill-rule="evenodd" clip-rule="evenodd" d="M14.7452 7.49059L14.7443 7.49176C14.5659 7.72055 14.5254 8.02711 14.6387 8.29376C14.7818 8.63099 14.6766 9.02179 14.3832 9.24309L14.3829 9.24339C14.151 9.41802 14.032 9.70331 14.0716 9.98976V9.99079C14.1214 10.3533 13.9177 10.7033 13.5767 10.8412H13.5763C13.3064 10.9503 13.1168 11.1955 13.0802 11.4827V11.4835C13.034 11.8463 12.7466 12.1319 12.3817 12.1778H12.3808C12.0918 12.2141 11.845 12.4025 11.7351 12.6706V12.6711C11.5964 13.0099 11.2442 13.2123 10.8794 13.1627H10.8784C10.5903 13.1236 10.3032 13.2419 10.1273 13.4722L10.127 13.4725C9.90442 13.7642 9.51099 13.8687 9.17161 13.7263C8.90327 13.6139 8.59476 13.654 8.36452 13.8313L8.36334 13.8322C8.0727 14.0559 7.66657 14.0559 7.37593 13.8322L7.37475 13.8313C7.14452 13.654 6.83601 13.6138 6.56767 13.7263C6.22829 13.8685 5.83501 13.7641 5.6123 13.4725L5.61201 13.4722C5.43627 13.2418 5.14917 13.1235 4.86089 13.1628H4.85986C4.49508 13.2123 4.14286 13.0099 4.00404 12.6711V12.6706C3.89431 12.4025 3.64753 12.2141 3.35851 12.1777H3.35763C2.99255 12.1317 2.70516 11.8462 2.65894 11.4835V11.4827C2.62246 11.1955 2.43284 10.9503 2.16302 10.8411H2.16258C1.82158 10.7033 1.61792 10.3533 1.66784 9.99079V9.98976C1.70712 9.70345 1.58809 9.41817 1.35637 9.24339L1.35608 9.24309C1.06249 9.02194 0.957335 8.63099 1.10059 8.29376C1.21371 8.02711 1.1734 7.72055 0.994994 7.49176L0.994108 7.49059C0.768891 7.20178 0.768891 6.79822 0.994108 6.50941L0.994994 6.50824C1.1734 6.27945 1.21386 5.97289 1.10059 5.70624C0.957482 5.36901 1.06263 4.97821 1.35608 4.75691L1.35637 4.75661C1.58824 4.58198 1.70727 4.29669 1.66769 4.01024V4.00921C1.61792 3.64673 1.82158 3.29673 2.16258 3.15878H2.16302C2.43284 3.04975 2.62246 2.80453 2.65909 2.51734V2.51645C2.70531 2.15369 2.9927 1.86811 3.35763 1.82217H3.35851C3.64753 1.78593 3.89431 1.5975 4.00418 1.32938V1.32894C4.14286 0.990094 4.49508 0.787724 4.85986 0.837326H4.86089C5.14902 0.876362 5.43612 0.75808 5.61201 0.527828L5.6123 0.527534C5.83486 0.235793 6.22829 0.131306 6.56767 0.273654C6.83601 0.386066 7.14452 0.346003 7.37475 0.168727L7.37593 0.167847C7.66657 -0.0559489 8.0727 -0.0559489 8.36334 0.167847L8.36452 0.168727C8.59476 0.346003 8.90327 0.386213 9.17161 0.273654C9.51099 0.131452 9.90427 0.235939 10.127 0.527534L10.1273 0.527828C10.303 0.758227 10.5901 0.876509 10.8784 0.837179H10.8794C11.2442 0.787724 11.5964 0.990094 11.7352 1.32894V1.32938C11.845 1.5975 12.0918 1.78593 12.3808 1.82232H12.3817C12.7467 1.86825 13.0341 2.15383 13.0803 2.51645V2.51734C13.1168 2.80453 13.3064 3.04975 13.5763 3.15893H13.5767C13.9177 3.29673 14.1214 3.64673 14.0714 4.00921V4.01024C14.0322 4.29655 14.1512 4.58183 14.3829 4.75661L14.3832 4.75691C14.6768 4.97806 14.7819 5.36901 14.6387 5.70624C14.5256 5.97289 14.5659 6.27945 14.7443 6.50824L14.7452 6.50941C14.9704 6.79822 14.9704 7.20178 14.7452 7.49059ZM2.74297 7C2.74297 9.81352 5.03826 12.0945 7.86979 12.0945C10.7012 12.0945 12.9966 9.81352 12.9966 7C12.9966 4.18648 10.7013 1.90553 7.86979 1.90553C5.03826 1.90553 2.74297 4.18648 2.74297 7ZM4.78897 7.88943L6.36002 9.49988L10.5717 4.71065L9.95546 4.14111L6.32881 8.26511L5.37574 7.28804L4.78897 7.88943Z" fill="#E8A705"/>
</svg>
