<svg width="18" height="18" viewBox="0 0 18 18" fill="none" xmlns="http://www.w3.org/2000/svg">
<path d="M16.618 6.80088C16.3234 6.49307 16.0188 6.17588 15.9039 5.89697C15.7977 5.6415 15.7914 5.21807 15.7852 4.80791C15.7734 4.04541 15.7609 3.18135 15.1602 2.58057C14.5594 1.97979 13.6953 1.96729 12.9328 1.95557C12.5227 1.94932 12.0992 1.94307 11.8438 1.83682C11.5656 1.72197 11.2477 1.41729 10.9398 1.12275C10.4008 0.604785 9.78828 0.0180664 8.97266 0.0180664C8.15703 0.0180664 7.54531 0.604785 7.00547 1.12275C6.69766 1.41729 6.38047 1.72197 6.10156 1.83682C5.84766 1.94307 5.42266 1.94932 5.0125 1.95557C4.25 1.96729 3.38594 1.97979 2.78516 2.58057C2.18437 3.18135 2.17578 4.04541 2.16016 4.80791C2.15391 5.21807 2.14766 5.6415 2.04141 5.89697C1.92656 6.1751 1.62187 6.49307 1.32734 6.80088C0.809375 7.33994 0.222656 7.95244 0.222656 8.76807C0.222656 9.58369 0.809375 10.1954 1.32734 10.7353C1.62187 11.0431 1.92656 11.3603 2.04141 11.6392C2.14766 11.8946 2.15391 12.3181 2.16016 12.7282C2.17188 13.4907 2.18437 14.3548 2.78516 14.9556C3.38594 15.5563 4.25 15.5688 5.0125 15.5806C5.42266 15.5868 5.84609 15.5931 6.10156 15.6993C6.37969 15.8142 6.69766 16.1188 7.00547 16.4134C7.54453 16.9313 8.15703 17.5181 8.97266 17.5181C9.78828 17.5181 10.4 16.9313 10.9398 16.4134C11.2477 16.1188 11.5648 15.8142 11.8438 15.6993C12.0992 15.5931 12.5227 15.5868 12.9328 15.5806C13.6953 15.5688 14.5594 15.5563 15.1602 14.9556C15.7609 14.3548 15.7734 13.4907 15.7852 12.7282C15.7914 12.3181 15.7977 11.8946 15.9039 11.6392C16.0188 11.361 16.3234 11.0431 16.618 10.7353C17.1359 10.1962 17.7227 9.58369 17.7227 8.76807C17.7227 7.95244 17.1359 7.34072 16.618 6.80088ZM15.7156 9.87041C15.3414 10.261 14.9539 10.6649 14.7484 11.161C14.5516 11.6376 14.543 12.1821 14.5352 12.7095C14.5273 13.2563 14.5188 13.829 14.2758 14.0712C14.0328 14.3134 13.4641 14.3228 12.9141 14.3306C12.3867 14.3384 11.8422 14.347 11.3656 14.5438C10.8695 14.7493 10.4656 15.1368 10.075 15.511C9.68437 15.8853 9.28516 16.2681 8.97266 16.2681C8.66016 16.2681 8.25781 15.8837 7.87031 15.511C7.48281 15.1384 7.07578 14.7493 6.57969 14.5438C6.10313 14.347 5.55859 14.3384 5.03125 14.3306C4.48438 14.3228 3.91172 14.3142 3.66953 14.0712C3.42734 13.8282 3.41797 13.2595 3.41016 12.7095C3.40234 12.1821 3.39375 11.6376 3.19688 11.161C2.99141 10.6649 2.60391 10.261 2.22969 9.87041C1.85547 9.47978 1.47266 9.08057 1.47266 8.76807C1.47266 8.45557 1.85703 8.05322 2.22969 7.66572C2.60234 7.27822 2.99141 6.87119 3.19688 6.3751C3.39375 5.89854 3.40234 5.354 3.41016 4.82666C3.41797 4.27979 3.42656 3.70713 3.66953 3.46494C3.9125 3.22275 4.48125 3.21338 5.03125 3.20557C5.55859 3.19775 6.10313 3.18916 6.57969 2.99229C7.07578 2.78682 7.47969 2.39932 7.87031 2.0251C8.26094 1.65088 8.66016 1.26807 8.97266 1.26807C9.28516 1.26807 9.6875 1.65244 10.075 2.0251C10.4625 2.39775 10.8695 2.78682 11.3656 2.99229C11.8422 3.18916 12.3867 3.19775 12.9141 3.20557C13.4609 3.21338 14.0336 3.22197 14.2758 3.46494C14.518 3.70791 14.5273 4.27666 14.5352 4.82666C14.543 5.354 14.5516 5.89854 14.7484 6.3751C14.9539 6.87119 15.3414 7.2751 15.7156 7.66572C16.0898 8.05635 16.4727 8.45557 16.4727 8.76807C16.4727 9.08057 16.0883 9.48291 15.7156 9.87041ZM12.5398 6.45088C12.598 6.50892 12.6441 6.57786 12.6755 6.65373C12.707 6.7296 12.7231 6.81093 12.7231 6.89307C12.7231 6.9752 12.707 7.05653 12.6755 7.1324C12.6441 7.20828 12.598 7.27721 12.5398 7.33525L8.16484 11.7103C8.1068 11.7684 8.03787 11.8145 7.96199 11.8459C7.88612 11.8774 7.80479 11.8936 7.72266 11.8936C7.64052 11.8936 7.55919 11.8774 7.48332 11.8459C7.40744 11.8145 7.33851 11.7684 7.28047 11.7103L5.40547 9.83525C5.28819 9.71798 5.22231 9.55892 5.22231 9.39307C5.22231 9.22721 5.28819 9.06815 5.40547 8.95088C5.52274 8.8336 5.6818 8.76772 5.84766 8.76772C6.01351 8.76772 6.17257 8.8336 6.28984 8.95088L7.72266 10.3845L11.6555 6.45088C11.7135 6.39277 11.7824 6.34667 11.8583 6.31522C11.9342 6.28376 12.0155 6.26757 12.0977 6.26757C12.1798 6.26757 12.2611 6.28376 12.337 6.31522C12.4129 6.34667 12.4818 6.39277 12.5398 6.45088Z" fill="white"/>
</svg>
